<svg xmlns="http://www.w3.org/2000/svg" xmlns:xlink="http://www.w3.org/1999/xlink" width="80" zoomAndPan="magnify" viewBox="0 0 60 60" height="80" preserveAspectRatio="xMidYMid meet" version="1.0"><defs><clipPath id="eb7dc23bb4"><path d="M 0 8 L 28 8 L 28 52.125 L 0 52.125 Z M 0 8 " clip-rule="nonzero"/></clipPath></defs><path fill="#d90000" d="M 52.273438 14.199219 C 52.351562 14.324219 52.394531 14.46875 52.40625 14.632812 C 52.417969 14.796875 52.398438 14.976562 52.34375 15.167969 C 52.289062 15.363281 52.203125 15.570312 52.085938 15.785156 C 51.96875 16.003906 51.820312 16.230469 51.640625 16.460938 C 51.464844 16.695312 51.257812 16.929688 51.027344 17.167969 C 50.796875 17.410156 50.546875 17.644531 50.269531 17.882812 C 49.996094 18.117188 49.707031 18.347656 49.398438 18.574219 C 49.089844 18.796875 48.773438 19.011719 48.441406 19.214844 C 48.113281 19.417969 47.78125 19.605469 47.441406 19.78125 C 47.101562 19.957031 46.765625 20.113281 46.433594 20.253906 C 46.097656 20.394531 45.773438 20.511719 45.457031 20.613281 C 45.140625 20.710938 44.835938 20.789062 44.550781 20.84375 C 44.261719 20.898438 43.996094 20.929688 43.746094 20.9375 C 43.5 20.949219 43.277344 20.933594 43.078125 20.894531 C 42.882812 20.855469 42.710938 20.796875 42.570312 20.710938 C 42.429688 20.628906 42.324219 20.523438 42.246094 20.398438 C 42.167969 20.269531 42.121094 20.128906 42.109375 19.964844 C 42.097656 19.800781 42.121094 19.621094 42.171875 19.429688 C 42.226562 19.234375 42.3125 19.027344 42.433594 18.8125 C 42.550781 18.59375 42.699219 18.367188 42.875 18.136719 C 43.054688 17.902344 43.257812 17.667969 43.488281 17.425781 C 43.71875 17.1875 43.972656 16.949219 44.246094 16.714844 C 44.519531 16.480469 44.8125 16.25 45.121094 16.023438 C 45.425781 15.800781 45.746094 15.585938 46.074219 15.382812 C 46.40625 15.179688 46.738281 14.992188 47.078125 14.816406 C 47.414062 14.640625 47.75 14.484375 48.085938 14.34375 C 48.417969 14.203125 48.742188 14.085938 49.058594 13.984375 C 49.378906 13.886719 49.679688 13.808594 49.96875 13.753906 C 50.253906 13.699219 50.523438 13.667969 50.769531 13.660156 C 51.019531 13.648438 51.242188 13.664062 51.4375 13.703125 C 51.636719 13.742188 51.804688 13.800781 51.945312 13.886719 C 52.085938 13.96875 52.195312 14.074219 52.273438 14.199219 Z M 52.273438 14.199219 " fill-opacity="1" fill-rule="nonzero"/><path fill="#d90000" d="M 12.414062 46.644531 L 12.136719 50.042969 C 12.121094 50.261719 12.074219 50.472656 12.003906 50.675781 C 12.214844 50.519531 12.414062 50.355469 12.601562 50.183594 L 14.816406 48.136719 L 14.535156 44.683594 Z M 12.414062 46.644531 " fill-opacity="1" fill-rule="nonzero"/><path fill="#d90000" d="M 56.90625 12.816406 C 55.980469 13.078125 54.898438 13.828125 54.496094 14.496094 C 54.109375 15.128906 54.472656 15.453125 55.304688 15.261719 C 55.410156 15.332031 55.742188 15.710938 55.101562 17.675781 C 54.945312 18.160156 54.757812 18.640625 54.585938 19.054688 L 45.101562 21.863281 L 40.285156 21.863281 L 36.414062 19.054688 C 37.070312 18.640625 37.847656 18.160156 38.660156 17.675781 C 41.945312 15.710938 43.039062 15.332031 43.28125 15.261719 C 43.726562 15.453125 44.742188 15.128906 45.625 14.496094 C 46.550781 13.828125 46.976562 13.078125 46.570312 12.816406 C 45.238281 11.957031 40.28125 14.859375 38.652344 15.816406 C 35.96875 17.390625 33.484375 19.035156 33.378906 19.105469 C 32.894531 19.425781 32.5 19.796875 32.285156 20.136719 C 32.070312 20.472656 32.058594 20.746094 32.25 20.882812 L 36.332031 23.84375 L 27.25 32.925781 L 19.648438 39.953125 L 19.929688 43.40625 L 28.550781 35.4375 L 29.683594 35.4375 L 20.128906 45.839844 L 20.433594 49.59375 C 20.441406 49.6875 20.445312 49.78125 20.445312 49.871094 C 20.449219 49.867188 20.453125 49.863281 20.453125 49.859375 L 36.007812 32.925781 L 45.089844 23.84375 L 55.089844 20.882812 C 55.5625 20.746094 56.089844 20.472656 56.550781 20.136719 C 57.015625 19.796875 57.367188 19.425781 57.523438 19.105469 C 57.558594 19.035156 58.363281 17.390625 58.824219 15.816406 C 59.105469 14.859375 59.960938 11.957031 56.90625 12.816406 Z M 56.90625 12.816406 " fill-opacity="1" fill-rule="nonzero"/><path fill="#d90000" d="M 17.570312 13.753906 C 17.570312 14.015625 17.542969 14.277344 17.492188 14.535156 C 17.441406 14.796875 17.363281 15.046875 17.261719 15.289062 C 17.164062 15.535156 17.039062 15.765625 16.890625 15.984375 C 16.746094 16.203125 16.578125 16.40625 16.394531 16.59375 C 16.207031 16.777344 16.003906 16.945312 15.785156 17.089844 C 15.566406 17.238281 15.335938 17.363281 15.089844 17.460938 C 14.847656 17.5625 14.597656 17.640625 14.335938 17.691406 C 14.078125 17.742188 13.816406 17.769531 13.554688 17.769531 C 13.289062 17.769531 13.03125 17.742188 12.769531 17.691406 C 12.511719 17.640625 12.261719 17.5625 12.019531 17.460938 C 11.773438 17.363281 11.542969 17.238281 11.324219 17.089844 C 11.105469 16.945312 10.902344 16.777344 10.714844 16.59375 C 10.527344 16.40625 10.363281 16.203125 10.214844 15.984375 C 10.070312 15.765625 9.945312 15.535156 9.84375 15.289062 C 9.746094 15.046875 9.667969 14.796875 9.617188 14.535156 C 9.566406 14.277344 9.539062 14.015625 9.539062 13.753906 C 9.539062 13.488281 9.566406 13.230469 9.617188 12.96875 C 9.667969 12.710938 9.746094 12.460938 9.84375 12.21875 C 9.945312 11.972656 10.070312 11.742188 10.214844 11.523438 C 10.363281 11.304688 10.527344 11.101562 10.714844 10.914062 C 10.902344 10.726562 11.105469 10.5625 11.324219 10.414062 C 11.542969 10.269531 11.773438 10.144531 12.019531 10.042969 C 12.261719 9.945312 12.511719 9.867188 12.769531 9.816406 C 13.03125 9.765625 13.289062 9.738281 13.554688 9.738281 C 13.816406 9.738281 14.078125 9.765625 14.335938 9.816406 C 14.597656 9.867188 14.847656 9.945312 15.089844 10.042969 C 15.335938 10.144531 15.566406 10.269531 15.785156 10.414062 C 16.003906 10.5625 16.207031 10.726562 16.394531 10.914062 C 16.578125 11.101562 16.746094 11.304688 16.890625 11.523438 C 17.039062 11.742188 17.164062 11.972656 17.261719 12.21875 C 17.363281 12.460938 17.441406 12.710938 17.492188 12.96875 C 17.542969 13.230469 17.570312 13.488281 17.570312 13.753906 Z M 17.570312 13.753906 " fill-opacity="1" fill-rule="nonzero"/><g clip-path="url(#eb7dc23bb4)"><path fill="#d90000" d="M 19.902344 49.640625 L 18.378906 30.976562 L 18.378906 20.96875 L 26.136719 17.707031 C 26.503906 17.554688 26.789062 17.253906 26.925781 16.882812 C 27.0625 16.511719 27.039062 16.097656 26.859375 15.746094 C 26.820312 15.667969 25.894531 13.855469 24.667969 12.121094 C 23.925781 11.066406 21.664062 7.867188 19.25 8.816406 C 18.515625 9.105469 18.152344 9.933594 18.441406 10.667969 C 18.714844 11.363281 19.476562 11.722656 20.179688 11.511719 C 20.371094 11.585938 21.15625 12.003906 22.613281 14.171875 C 22.972656 14.703125 23.300781 15.234375 23.566406 15.691406 L 16.207031 18.785156 L 10.902344 18.785156 L 3.542969 15.691406 C 3.808594 15.234375 4.136719 14.703125 4.492188 14.171875 C 5.949219 12.003906 6.738281 11.585938 6.929688 11.511719 C 7.632812 11.722656 8.390625 11.363281 8.667969 10.667969 C 8.953125 9.933594 8.59375 9.105469 7.859375 8.816406 C 5.441406 7.867188 3.183594 11.070312 2.4375 12.121094 C 1.214844 13.855469 0.289062 15.667969 0.25 15.746094 C 0.0703125 16.097656 0.046875 16.511719 0.183594 16.882812 C 0.320312 17.253906 0.605469 17.554688 0.96875 17.707031 L 8.726562 20.96875 L 8.726562 30.976562 L 7.207031 49.640625 C 7.109375 50.855469 8.011719 51.917969 9.226562 52.015625 C 10.441406 52.117188 11.503906 51.210938 11.605469 49.996094 L 12.929688 33.746094 L 14.179688 33.746094 L 15.503906 49.996094 C 15.601562 51.210938 16.667969 52.117188 17.882812 52.015625 C 19.097656 51.917969 20 50.855469 19.902344 49.640625 Z M 19.902344 49.640625 " fill-opacity="1" fill-rule="nonzero"/></g></svg>