<svg xmlns="http://www.w3.org/2000/svg" xmlns:xlink="http://www.w3.org/1999/xlink" width="80" zoomAndPan="magnify" viewBox="0 0 60 60" height="80" preserveAspectRatio="xMidYMid meet" version="1.0"><defs><clipPath id="a093b208ad"><path d="M 4.027344 9 L 41 9 L 41 60 L 4.027344 60 Z M 4.027344 9 " clip-rule="nonzero"/></clipPath><clipPath id="5203992448"><path d="M 4.027344 46 L 32 46 L 32 49 L 4.027344 49 Z M 4.027344 46 " clip-rule="nonzero"/></clipPath><clipPath id="737ac2f3e7"><path d="M 4.027344 54 L 35 54 L 35 57 L 4.027344 57 Z M 4.027344 54 " clip-rule="nonzero"/></clipPath><clipPath id="c91c2bd6c3"><path d="M 4.027344 23 L 40 23 L 40 26 L 4.027344 26 Z M 4.027344 23 " clip-rule="nonzero"/></clipPath><clipPath id="dad71c4f90"><path d="M 33 11 L 57.277344 11 L 57.277344 33 L 33 33 Z M 33 11 " clip-rule="nonzero"/></clipPath></defs><path fill="#d90000" d="M 34.03125 11.253906 C 33.511719 11.253906 33.09375 10.835938 33.09375 10.316406 L 33.09375 0.953125 C 33.09375 0.4375 33.511719 0.015625 34.03125 0.015625 C 34.546875 0.015625 34.96875 0.4375 34.96875 0.953125 L 34.96875 10.316406 C 34.96875 10.835938 34.546875 11.253906 34.03125 11.253906 Z M 34.03125 11.253906 " fill-opacity="1" fill-rule="nonzero"/><path fill="#d90000" d="M 11.535156 11.253906 C 11.015625 11.253906 10.597656 10.835938 10.597656 10.316406 L 10.597656 0.953125 C 10.597656 0.4375 11.015625 0.015625 11.535156 0.015625 C 12.054688 0.015625 12.472656 0.4375 12.472656 0.953125 L 12.472656 10.316406 C 12.472656 10.835938 12.054688 11.253906 11.535156 11.253906 Z M 11.535156 11.253906 " fill-opacity="1" fill-rule="nonzero"/><path fill="#d90000" d="M 15.285156 11.253906 C 14.765625 11.253906 14.347656 10.835938 14.347656 10.316406 L 14.347656 0.953125 C 14.347656 0.4375 14.765625 0.015625 15.285156 0.015625 C 15.800781 0.015625 16.222656 0.4375 16.222656 0.953125 L 16.222656 10.316406 C 16.222656 10.835938 15.800781 11.253906 15.285156 11.253906 Z M 15.285156 11.253906 " fill-opacity="1" fill-rule="nonzero"/><path fill="#d90000" d="M 19.035156 11.253906 C 18.515625 11.253906 18.097656 10.835938 18.097656 10.316406 L 18.097656 0.953125 C 18.097656 0.4375 18.515625 0.015625 19.035156 0.015625 C 19.550781 0.015625 19.972656 0.4375 19.972656 0.953125 L 19.972656 10.316406 C 19.972656 10.835938 19.550781 11.253906 19.035156 11.253906 Z M 19.035156 11.253906 " fill-opacity="1" fill-rule="nonzero"/><path fill="#d90000" d="M 22.78125 11.253906 C 22.265625 11.253906 21.84375 10.835938 21.84375 10.316406 L 21.84375 0.953125 C 21.84375 0.4375 22.265625 0.015625 22.78125 0.015625 C 23.300781 0.015625 23.71875 0.4375 23.71875 0.953125 L 23.71875 10.316406 C 23.71875 10.835938 23.300781 11.253906 22.78125 11.253906 Z M 22.78125 11.253906 " fill-opacity="1" fill-rule="nonzero"/><path fill="#d90000" d="M 26.53125 11.253906 C 26.015625 11.253906 25.59375 10.835938 25.59375 10.316406 L 25.59375 0.953125 C 25.59375 0.4375 26.015625 0.015625 26.53125 0.015625 C 27.050781 0.015625 27.46875 0.4375 27.46875 0.953125 L 27.46875 10.316406 C 27.46875 10.835938 27.050781 11.253906 26.53125 11.253906 Z M 26.53125 11.253906 " fill-opacity="1" fill-rule="nonzero"/><path fill="#d90000" d="M 30.28125 11.253906 C 29.761719 11.253906 29.34375 10.835938 29.34375 10.316406 L 29.34375 0.953125 C 29.34375 0.4375 29.761719 0.015625 30.28125 0.015625 C 30.796875 0.015625 31.21875 0.4375 31.21875 0.953125 L 31.21875 10.316406 C 31.21875 10.835938 30.796875 11.253906 30.28125 11.253906 Z M 30.28125 11.253906 " fill-opacity="1" fill-rule="nonzero"/><path fill="#d90000" d="M 37.765625 11.265625 L 7.773438 11.265625 C 7.253906 11.265625 6.835938 10.84375 6.835938 10.328125 L 6.835938 0.953125 C 6.835938 0.4375 7.253906 0.015625 7.773438 0.015625 L 37.765625 0.015625 C 38.285156 0.015625 38.703125 0.4375 38.703125 0.953125 L 38.703125 10.328125 C 38.703125 10.84375 38.285156 11.265625 37.765625 11.265625 Z M 8.710938 9.390625 L 36.828125 9.390625 L 36.828125 1.890625 L 8.710938 1.890625 Z M 8.710938 9.390625 " fill-opacity="1" fill-rule="nonzero"/><g clip-path="url(#a093b208ad)"><path fill="#d90000" d="M 38.238281 59.984375 L 7.355469 59.984375 C 5.550781 59.984375 4.078125 58.515625 4.078125 56.707031 L 4.066406 47.808594 L 4.03125 20.816406 C 4.03125 18.621094 5.011719 16.582031 6.726562 15.210938 C 7.339844 14.71875 7.847656 14.082031 8.1875 13.375 C 8.53125 12.664062 8.710938 11.871094 8.710938 11.082031 L 8.710938 10.328125 C 8.710938 9.808594 9.128906 9.390625 9.648438 9.390625 C 10.164062 9.390625 10.585938 9.808594 10.585938 10.328125 L 10.585938 11.082031 C 10.585938 12.148438 10.339844 13.222656 9.878906 14.1875 C 9.414062 15.148438 8.730469 16.007812 7.894531 16.675781 C 6.628906 17.6875 5.90625 19.195312 5.90625 20.8125 L 5.953125 56.707031 C 5.953125 57.480469 6.582031 58.109375 7.355469 58.109375 L 38.238281 58.109375 C 38.449219 58.109375 38.648438 58.0625 38.839844 57.976562 C 39.308594 57.757812 39.863281 57.957031 40.085938 58.425781 C 40.304688 58.894531 40.101562 59.453125 39.632812 59.671875 C 39.195312 59.878906 38.726562 59.984375 38.238281 59.984375 Z M 38.238281 59.984375 " fill-opacity="1" fill-rule="nonzero"/></g><path fill="#d90000" d="M 40.574219 37.539062 C 40.054688 37.539062 39.636719 37.121094 39.636719 36.601562 L 39.632812 31.875 C 39.632812 31.359375 40.054688 30.9375 40.570312 30.9375 C 41.089844 30.9375 41.507812 31.355469 41.507812 31.875 L 41.511719 36.601562 C 41.511719 37.117188 41.09375 37.539062 40.574219 37.539062 Z M 40.574219 37.539062 " fill-opacity="1" fill-rule="nonzero"/><path fill="#d90000" d="M 40.554688 21.378906 C 40.0625 21.378906 39.648438 20.996094 39.621094 20.496094 C 39.53125 19.003906 38.8125 17.613281 37.648438 16.679688 C 37.636719 16.671875 37.625 16.664062 37.617188 16.65625 C 35.925781 15.289062 34.953125 13.261719 34.953125 11.085938 L 34.953125 10.328125 C 34.953125 9.8125 35.375 9.390625 35.890625 9.390625 C 36.410156 9.390625 36.828125 9.8125 36.828125 10.328125 L 36.828125 11.085938 C 36.828125 12.699219 37.550781 14.203125 38.8125 15.214844 C 38.824219 15.222656 38.832031 15.230469 38.84375 15.238281 C 40.40625 16.5 41.371094 18.375 41.492188 20.386719 C 41.519531 20.902344 41.125 21.347656 40.609375 21.378906 C 40.589844 21.378906 40.574219 21.378906 40.554688 21.378906 Z M 40.554688 21.378906 " fill-opacity="1" fill-rule="nonzero"/><g clip-path="url(#5203992448)"><path fill="#d90000" d="M 30.273438 48.746094 L 4.964844 48.746094 C 4.449219 48.746094 4.027344 48.328125 4.027344 47.808594 C 4.027344 47.292969 4.449219 46.871094 4.964844 46.871094 L 30.273438 46.871094 C 30.789062 46.871094 31.210938 47.292969 31.210938 47.808594 C 31.210938 48.328125 30.789062 48.746094 30.273438 48.746094 Z M 30.273438 48.746094 " fill-opacity="1" fill-rule="nonzero"/></g><g clip-path="url(#737ac2f3e7)"><path fill="#d90000" d="M 33.136719 56.246094 L 4.964844 56.246094 C 4.449219 56.246094 4.027344 55.824219 4.027344 55.308594 C 4.027344 54.789062 4.449219 54.371094 4.964844 54.371094 L 33.136719 54.371094 C 33.65625 54.371094 34.074219 54.789062 34.074219 55.308594 C 34.074219 55.824219 33.65625 56.246094 33.136719 56.246094 Z M 33.136719 56.246094 " fill-opacity="1" fill-rule="nonzero"/></g><g clip-path="url(#c91c2bd6c3)"><path fill="#d90000" d="M 38.308594 25.3125 L 4.972656 25.3125 C 4.457031 25.3125 4.03125 24.894531 4.03125 24.378906 C 4.03125 23.859375 4.449219 23.441406 4.964844 23.441406 L 38.308594 23.441406 C 38.824219 23.441406 39.246094 23.859375 39.246094 24.378906 C 39.246094 24.894531 38.824219 25.3125 38.308594 25.3125 Z M 38.308594 25.3125 " fill-opacity="1" fill-rule="nonzero"/></g><path fill="#d90000" d="M 35.628906 30 L 8.714844 30 C 8.199219 30 7.777344 29.582031 7.777344 29.0625 C 7.777344 28.546875 8.199219 28.125 8.714844 28.125 L 35.628906 28.125 C 36.144531 28.125 36.566406 28.546875 36.566406 29.0625 C 36.566406 29.582031 36.144531 30 35.628906 30 Z M 35.628906 30 " fill-opacity="1" fill-rule="nonzero"/><path fill="#d90000" d="M 30.273438 34.6875 L 8.714844 34.6875 C 8.199219 34.6875 7.777344 34.265625 7.777344 33.75 C 7.777344 33.230469 8.199219 32.8125 8.714844 32.8125 L 30.273438 32.8125 C 30.789062 32.8125 31.210938 33.230469 31.210938 33.75 C 31.210938 34.265625 30.789062 34.6875 30.273438 34.6875 Z M 30.273438 34.6875 " fill-opacity="1" fill-rule="nonzero"/><path fill="#d90000" d="M 35.300781 39.375 L 8.714844 39.375 C 8.199219 39.375 7.777344 38.953125 7.777344 38.4375 C 7.777344 37.917969 8.199219 37.5 8.714844 37.5 L 35.300781 37.5 C 35.820312 37.5 36.238281 37.917969 36.238281 38.4375 C 36.238281 38.953125 35.820312 39.375 35.300781 39.375 Z M 35.300781 39.375 " fill-opacity="1" fill-rule="nonzero"/><path fill="#d90000" d="M 31.292969 44.058594 L 8.714844 44.058594 C 8.199219 44.058594 7.777344 43.640625 7.777344 43.121094 C 7.777344 42.605469 8.199219 42.183594 8.714844 42.183594 L 31.292969 42.183594 C 31.8125 42.183594 32.230469 42.605469 32.230469 43.121094 C 32.230469 43.640625 31.8125 44.058594 31.292969 44.058594 Z M 31.292969 44.058594 " fill-opacity="1" fill-rule="nonzero"/><path fill="#d90000" d="M 41.519531 59.992188 C 34.800781 59.992188 29.335938 54.527344 29.335938 47.808594 C 29.335938 41.089844 34.800781 35.625 41.519531 35.625 C 48.238281 35.625 53.707031 41.089844 53.707031 47.808594 C 53.707031 54.527344 48.238281 59.992188 41.519531 59.992188 Z M 41.519531 37.5 C 35.835938 37.5 31.210938 42.125 31.210938 47.808594 C 31.210938 53.496094 35.835938 58.121094 41.519531 58.121094 C 47.207031 58.121094 51.832031 53.496094 51.832031 47.808594 C 51.832031 42.125 47.207031 37.5 41.519531 37.5 Z M 41.519531 37.5 " fill-opacity="1" fill-rule="nonzero"/><path fill="#d90000" d="M 46.207031 46.871094 C 45.25 46.871094 44.347656 46.5 43.667969 45.820312 C 43.304688 45.453125 43.304688 44.863281 43.667969 44.496094 C 44.035156 44.128906 44.628906 44.128906 44.996094 44.496094 C 45.664062 45.164062 46.75 45.164062 47.417969 44.496094 C 47.785156 44.128906 48.378906 44.128906 48.746094 44.496094 C 49.109375 44.863281 49.109375 45.453125 48.746094 45.820312 C 48.066406 46.5 47.164062 46.871094 46.207031 46.871094 Z M 46.207031 46.871094 " fill-opacity="1" fill-rule="nonzero"/><path fill="#d90000" d="M 36.835938 46.871094 C 35.875 46.871094 34.976562 46.5 34.296875 45.820312 C 33.929688 45.453125 33.929688 44.863281 34.296875 44.496094 C 34.664062 44.128906 35.257812 44.128906 35.621094 44.496094 C 36.289062 45.164062 37.378906 45.164062 38.046875 44.496094 C 38.414062 44.128906 39.003906 44.128906 39.371094 44.496094 C 39.738281 44.863281 39.738281 45.453125 39.371094 45.820312 C 38.695312 46.5 37.792969 46.871094 36.835938 46.871094 Z M 36.835938 46.871094 " fill-opacity="1" fill-rule="nonzero"/><path fill="#d90000" d="M 44.332031 53.433594 C 44.09375 53.433594 43.851562 53.339844 43.667969 53.160156 C 42.484375 51.972656 40.554688 51.972656 39.371094 53.160156 C 39.003906 53.523438 38.414062 53.523438 38.046875 53.160156 C 37.679688 52.792969 37.679688 52.199219 38.046875 51.832031 C 39.960938 49.917969 43.078125 49.917969 44.996094 51.832031 C 45.363281 52.199219 45.363281 52.792969 44.996094 53.160156 C 44.8125 53.339844 44.574219 53.433594 44.332031 53.433594 Z M 44.332031 53.433594 " fill-opacity="1" fill-rule="nonzero"/><g clip-path="url(#dad71c4f90)"><path fill="#d90000" d="M 56.515625 32.8125 L 34.023438 32.8125 C 33.6875 32.8125 33.378906 32.632812 33.210938 32.347656 C 33.042969 32.058594 33.042969 31.699219 33.207031 31.410156 L 44.457031 11.726562 C 44.621094 11.433594 44.933594 11.253906 45.269531 11.253906 C 45.605469 11.253906 45.917969 11.433594 46.082031 11.726562 L 57.332031 31.410156 C 57.496094 31.699219 57.496094 32.058594 57.328125 32.347656 C 57.160156 32.632812 56.851562 32.8125 56.515625 32.8125 Z M 35.636719 30.9375 L 54.902344 30.9375 L 45.269531 14.082031 Z M 35.636719 30.9375 " fill-opacity="1" fill-rule="nonzero"/></g><path fill="#d90000" d="M 45.269531 24.378906 C 44.753906 24.378906 44.332031 23.957031 44.332031 23.441406 L 44.332031 17.816406 C 44.332031 17.296875 44.753906 16.878906 45.269531 16.878906 C 45.789062 16.878906 46.207031 17.296875 46.207031 17.816406 L 46.207031 23.441406 C 46.207031 23.957031 45.789062 24.378906 45.269531 24.378906 Z M 45.269531 24.378906 " fill-opacity="1" fill-rule="nonzero"/><path fill="#d90000" d="M 45.269531 29.0625 C 44.753906 29.0625 44.332031 28.644531 44.332031 28.125 L 44.332031 27.1875 C 44.332031 26.671875 44.753906 26.25 45.269531 26.25 C 45.789062 26.25 46.207031 26.671875 46.207031 27.1875 L 46.207031 28.125 C 46.207031 28.644531 45.789062 29.0625 45.269531 29.0625 Z M 45.269531 29.0625 " fill-opacity="1" fill-rule="nonzero"/></svg>