<svg xmlns="http://www.w3.org/2000/svg" xmlns:xlink="http://www.w3.org/1999/xlink" width="80" zoomAndPan="magnify" viewBox="0 0 60 60" height="80" preserveAspectRatio="xMidYMid meet" version="1.0"><defs><clipPath id="8a4bc6ac7f"><path d="M 2.132812 20 L 42 20 L 42 58.835938 L 2.132812 58.835938 Z M 2.132812 20 " clip-rule="nonzero"/></clipPath><clipPath id="acc7c2c029"><path d="M 48 1.085938 L 55 1.085938 L 55 5 L 48 5 Z M 48 1.085938 " clip-rule="nonzero"/></clipPath><clipPath id="355bb0a1e6"><path d="M 33 1.085938 L 51 1.085938 L 51 9 L 33 9 Z M 33 1.085938 " clip-rule="nonzero"/></clipPath><clipPath id="6542ae6aa8"><path d="M 48 3 L 57.632812 3 L 57.632812 26 L 48 26 Z M 48 3 " clip-rule="nonzero"/></clipPath></defs><g clip-path="url(#8a4bc6ac7f)"><path fill="#d90000" d="M 21.585938 58.90625 C 10.859375 58.90625 2.136719 50.183594 2.136719 39.460938 C 2.136719 28.734375 10.859375 20.007812 21.585938 20.007812 C 26.273438 20.007812 30.808594 21.703125 34.34375 24.777344 C 34.5625 24.96875 34.585938 25.300781 34.394531 25.519531 C 34.203125 25.738281 33.871094 25.761719 33.652344 25.570312 C 30.308594 22.660156 26.019531 21.058594 21.585938 21.058594 C 11.4375 21.058594 3.1875 29.3125 3.1875 39.460938 C 3.1875 49.605469 11.4375 57.855469 21.585938 57.855469 C 31.726562 57.855469 39.984375 49.605469 39.984375 39.460938 C 39.984375 36.488281 39.253906 33.53125 37.878906 30.910156 C 37.746094 30.65625 37.84375 30.335938 38.101562 30.207031 C 38.355469 30.070312 38.675781 30.167969 38.8125 30.421875 C 40.265625 33.195312 41.035156 36.320312 41.035156 39.460938 C 41.035156 50.183594 32.308594 58.90625 21.585938 58.90625 " fill-opacity="1" fill-rule="nonzero"/></g><path fill="#d90000" d="M 21.585938 27.367188 C 14.921875 27.367188 9.496094 32.792969 9.496094 39.460938 C 9.496094 46.125 14.921875 51.546875 21.585938 51.546875 C 28.25 51.546875 33.675781 46.125 33.675781 39.460938 C 33.675781 32.792969 28.25 27.367188 21.585938 27.367188 Z M 21.585938 52.597656 C 14.335938 52.597656 8.445312 46.707031 8.445312 39.460938 C 8.445312 32.214844 14.335938 26.316406 21.585938 26.316406 C 28.832031 26.316406 34.726562 32.214844 34.726562 39.460938 C 34.726562 46.707031 28.832031 52.597656 21.585938 52.597656 " fill-opacity="1" fill-rule="nonzero"/><path fill="#d90000" d="M 34.109375 25.699219 C 33.964844 25.699219 33.828125 25.644531 33.722656 25.53125 C 33.527344 25.320312 33.539062 24.984375 33.753906 24.789062 C 38.207031 20.679688 41.304688 15.921875 42.960938 10.660156 C 43.046875 10.382812 43.339844 10.222656 43.617188 10.3125 C 43.894531 10.398438 44.046875 10.695312 43.960938 10.972656 C 42.253906 16.417969 39.058594 21.328125 34.46875 25.5625 C 34.363281 25.65625 34.238281 25.699219 34.109375 25.699219 " fill-opacity="1" fill-rule="nonzero"/><path fill="#d90000" d="M 38.472656 31.195312 C 38.324219 31.195312 38.175781 31.132812 38.070312 31.011719 C 37.882812 30.789062 37.910156 30.457031 38.128906 30.265625 C 41.878906 27.070312 46.800781 21.640625 48.953125 13.929688 C 49.027344 13.652344 49.316406 13.488281 49.601562 13.566406 C 49.875 13.644531 50.039062 13.933594 49.960938 14.214844 C 47.738281 22.179688 42.671875 27.777344 38.8125 31.066406 C 38.714844 31.152344 38.589844 31.195312 38.472656 31.195312 " fill-opacity="1" fill-rule="nonzero"/><g clip-path="url(#acc7c2c029)"><path fill="#d90000" d="M 53.625 4.667969 C 53.386719 4.667969 53.171875 4.507812 53.121094 4.265625 C 53.117188 4.257812 53.085938 4.121094 53.085938 4.113281 C 52.816406 2.949219 51.785156 2.136719 50.582031 2.136719 C 50.382812 2.136719 50.191406 2.15625 50.003906 2.203125 C 49.742188 2.261719 49.5 2.355469 49.28125 2.484375 C 49.027344 2.628906 48.707031 2.546875 48.5625 2.296875 C 48.417969 2.042969 48.5 1.722656 48.75 1.578125 C 49.066406 1.394531 49.40625 1.257812 49.769531 1.179688 C 50.03125 1.117188 50.304688 1.085938 50.582031 1.085938 C 52.277344 1.085938 53.726562 2.230469 54.109375 3.875 C 54.121094 3.910156 54.132812 3.976562 54.144531 4.039062 C 54.195312 4.320312 54.015625 4.597656 53.734375 4.65625 C 53.699219 4.664062 53.660156 4.667969 53.625 4.667969 " fill-opacity="1" fill-rule="nonzero"/></g><path fill="#d90000" d="M 34.945312 14.484375 C 33.023438 14.484375 31.574219 12.933594 31.574219 10.871094 C 31.574219 9.199219 32.394531 7.921875 33.773438 7.457031 C 34.046875 7.363281 34.347656 7.507812 34.4375 7.785156 C 34.53125 8.058594 34.386719 8.359375 34.109375 8.453125 C 33.164062 8.769531 32.625 9.652344 32.625 10.871094 C 32.625 12.359375 33.597656 13.433594 34.945312 13.433594 C 35.15625 13.433594 35.375 13.40625 35.582031 13.355469 C 35.785156 13.304688 35.972656 13.230469 36.152344 13.132812 C 36.203125 13.101562 36.265625 13.078125 36.324219 13.066406 C 36.601562 13.007812 36.886719 13.191406 36.945312 13.476562 C 36.992188 13.707031 36.882812 13.929688 36.683594 14.039062 C 36.679688 14.042969 36.675781 14.046875 36.671875 14.046875 C 36.414062 14.191406 36.132812 14.300781 35.847656 14.371094 C 35.546875 14.449219 35.246094 14.484375 34.945312 14.484375 " fill-opacity="1" fill-rule="nonzero"/><g clip-path="url(#355bb0a1e6)"><path fill="#d90000" d="M 33.902344 8.492188 C 33.691406 8.492188 33.492188 8.367188 33.410156 8.160156 C 33.304688 7.890625 33.441406 7.585938 33.707031 7.480469 L 49.691406 1.199219 C 49.960938 1.09375 50.265625 1.230469 50.375 1.5 C 50.480469 1.769531 50.347656 2.074219 50.078125 2.179688 L 34.09375 8.460938 C 34.03125 8.480469 33.964844 8.492188 33.902344 8.492188 " fill-opacity="1" fill-rule="nonzero"/></g><path fill="#d90000" d="M 35.714844 14.386719 C 35.507812 14.386719 35.308594 14.265625 35.226562 14.0625 C 35.121094 13.796875 35.238281 13.496094 35.503906 13.382812 L 36.195312 13.109375 C 36.238281 13.089844 36.277344 13.074219 36.324219 13.066406 L 43.269531 10.324219 C 43.539062 10.214844 43.84375 10.355469 43.949219 10.625 C 44.054688 10.890625 43.925781 11.195312 43.652344 11.304688 L 36.652344 14.058594 C 36.640625 14.0625 36.625 14.070312 36.609375 14.074219 L 35.910156 14.351562 C 35.847656 14.375 35.78125 14.386719 35.714844 14.386719 " fill-opacity="1" fill-rule="nonzero"/><path fill="#d90000" d="M 25.589844 33.90625 C 24.8125 33.90625 24.078125 34.320312 23.675781 34.984375 L 20.503906 40.238281 L 19.273438 38.640625 C 18.875 38.128906 18.273438 37.835938 17.625 37.835938 C 17.164062 37.835938 16.726562 37.984375 16.363281 38.261719 C 15.910156 38.609375 15.625 39.105469 15.550781 39.667969 C 15.480469 40.238281 15.632812 40.796875 15.980469 41.238281 L 19.175781 45.34375 C 19.546875 45.824219 20.113281 46.101562 20.726562 46.101562 C 20.746094 46.101562 20.8125 46.101562 20.828125 46.097656 C 21.464844 46.070312 22.054688 45.726562 22.398438 45.183594 L 27.449219 37.144531 C 27.746094 36.671875 27.84375 36.089844 27.710938 35.542969 C 27.582031 34.996094 27.226562 34.515625 26.746094 34.234375 C 26.386719 34.015625 25.992188 33.90625 25.589844 33.90625 Z M 25.589844 34.957031 C 25.792969 34.957031 26.003906 35.015625 26.191406 35.125 L 26.210938 35.136719 C 26.453125 35.28125 26.625 35.515625 26.691406 35.789062 C 26.753906 36.0625 26.707031 36.347656 26.558594 36.585938 L 21.507812 44.621094 C 21.347656 44.875 21.074219 45.035156 20.777344 45.050781 C 20.757812 45.050781 20.742188 45.050781 20.726562 45.050781 C 20.445312 45.050781 20.175781 44.917969 20.003906 44.695312 L 16.808594 40.59375 C 16.632812 40.371094 16.558594 40.085938 16.59375 39.804688 C 16.628906 39.523438 16.777344 39.269531 17.003906 39.097656 C 17.1875 38.957031 17.410156 38.886719 17.625 38.886719 C 17.933594 38.886719 18.238281 39.023438 18.441406 39.285156 L 20.394531 41.820312 C 20.4375 41.875 20.511719 41.914062 20.585938 41.914062 C 20.589844 41.914062 20.59375 41.914062 20.597656 41.914062 C 20.683594 41.90625 20.75 41.863281 20.792969 41.792969 L 24.574219 35.53125 C 24.796875 35.160156 25.191406 34.957031 25.589844 34.957031 " fill-opacity="1" fill-rule="nonzero"/><g clip-path="url(#6542ae6aa8)"><path fill="#d90000" d="M 54.230469 25.265625 C 52.777344 25.265625 51.382812 24.210938 50.832031 22.695312 C 50.816406 22.671875 50.808594 22.636719 50.800781 22.605469 L 48.941406 14.1875 C 48.882812 13.902344 49.0625 13.625 49.34375 13.558594 C 49.628906 13.496094 49.90625 13.675781 49.96875 13.960938 L 51.816406 22.339844 C 51.820312 22.351562 51.824219 22.359375 51.824219 22.367188 C 52.144531 23.257812 53.085938 24.214844 54.230469 24.214844 C 55.605469 24.214844 56.804688 22.925781 56.804688 21.457031 C 56.804688 21.3125 56.789062 21.167969 56.765625 21.027344 C 56.75 20.9375 56.738281 20.875 56.726562 20.816406 C 56.722656 20.804688 56.714844 20.796875 56.714844 20.785156 L 53.082031 4.105469 C 53.019531 3.820312 53.203125 3.542969 53.484375 3.480469 C 53.765625 3.417969 54.046875 3.59375 54.109375 3.878906 L 57.746094 20.570312 C 57.746094 20.578125 57.75 20.59375 57.75 20.605469 C 57.773438 20.6875 57.785156 20.742188 57.796875 20.800781 C 57.835938 21.035156 57.855469 21.246094 57.855469 21.457031 C 57.855469 23.519531 56.195312 25.265625 54.230469 25.265625 " fill-opacity="1" fill-rule="nonzero"/></g></svg>