<svg xmlns="http://www.w3.org/2000/svg" xmlns:xlink="http://www.w3.org/1999/xlink" width="80" zoomAndPan="magnify" viewBox="0 0 60 60" height="80" preserveAspectRatio="xMidYMid meet" version="1.0"><defs><clipPath id="8793687256"><path d="M 0 6 L 59.90625 6 L 59.90625 47 L 0 47 Z M 0 6 " clip-rule="nonzero"/></clipPath><clipPath id="3b8815706e"><path d="M 27 3.621094 L 55 3.621094 L 55 27 L 27 27 Z M 27 3.621094 " clip-rule="nonzero"/></clipPath><clipPath id="b6828725b1"><path d="M 0 33 L 59.90625 33 L 59.90625 56.121094 L 0 56.121094 Z M 0 33 " clip-rule="nonzero"/></clipPath><clipPath id="79873ae18e"><path d="M 0 36 L 59 36 L 59 56.121094 L 0 56.121094 Z M 0 36 " clip-rule="nonzero"/></clipPath></defs><g clip-path="url(#8793687256)"><path fill="#ffd9b1" d="M 59.082031 27.175781 C 59.054688 25.738281 59.058594 24.300781 59.121094 22.867188 C 59.183594 21.464844 59.382812 20.066406 59.34375 18.660156 C 59.261719 15.878906 58.507812 13.15625 58.460938 10.367188 C 58.460938 10.355469 58.460938 10.339844 58.460938 10.328125 C 58.429688 8.15625 56.667969 6.410156 54.488281 6.410156 L 6.351562 6.410156 C 3.511719 6.410156 1.191406 8.644531 1.066406 11.472656 C 1.066406 11.488281 1.066406 11.507812 1.0625 11.523438 C 0.933594 14.242188 0.15625 16.894531 0.210938 19.625 C 0.261719 22.390625 0.988281 25.089844 1.078125 27.851562 C 1.121094 29.246094 1.042969 30.652344 0.953125 32.050781 C 0.863281 33.476562 0.722656 34.894531 0.582031 36.3125 L 29.902344 46.515625 L 59.671875 40.441406 C 59.570312 38.804688 59.460938 37.347656 59.40625 35.707031 C 59.3125 32.871094 59.132812 30.023438 59.082031 27.175781 Z M 59.082031 27.175781 " fill-opacity="1" fill-rule="nonzero"/></g><path fill="#dea96f" d="M 0.742188 15.039062 C 1.929688 14.785156 3.15625 14.78125 4.351562 15.03125 C 4.402344 15.042969 4.421875 14.960938 4.371094 14.953125 C 3.164062 14.699219 1.925781 14.699219 0.71875 14.960938 C 0.664062 14.972656 0.6875 15.050781 0.742188 15.039062 Z M 0.742188 15.039062 " fill-opacity="1" fill-rule="nonzero"/><path fill="#dea96f" d="M 1.273438 15.527344 C 2.164062 15.675781 2.964844 16.125 3.558594 16.800781 C 3.59375 16.839844 3.652344 16.78125 3.617188 16.742188 C 3.015625 16.054688 2.199219 15.605469 1.296875 15.449219 C 1.246094 15.4375 1.222656 15.515625 1.273438 15.527344 Z M 1.273438 15.527344 " fill-opacity="1" fill-rule="nonzero"/><path fill="#dea96f" d="M 21.464844 14.855469 C 23.050781 13.207031 23.570312 10.683594 22.765625 8.546875 C 22.746094 8.5 22.664062 8.515625 22.683594 8.566406 C 23.480469 10.679688 22.972656 13.171875 21.410156 14.800781 C 21.371094 14.835938 21.425781 14.894531 21.464844 14.855469 Z M 21.464844 14.855469 " fill-opacity="1" fill-rule="nonzero"/><path fill="#dea96f" d="M 23.90625 11.496094 C 24.222656 10.960938 24.324219 10.347656 24.199219 9.742188 C 24.1875 9.691406 24.109375 9.714844 24.117188 9.765625 C 24.238281 10.351562 24.136719 10.941406 23.835938 11.453125 C 23.808594 11.5 23.878906 11.539062 23.90625 11.496094 Z M 23.90625 11.496094 " fill-opacity="1" fill-rule="nonzero"/><path fill="#dea96f" d="M 53.796875 24.863281 C 54.109375 23.921875 54.628906 23.066406 55.332031 22.363281 C 56.039062 21.65625 56.886719 21.109375 57.722656 20.566406 C 57.765625 20.539062 57.722656 20.464844 57.679688 20.496094 C 56.8125 21.058594 55.933594 21.625 55.210938 22.367188 C 54.53125 23.070312 54.023438 23.914062 53.71875 24.839844 C 53.703125 24.890625 53.78125 24.910156 53.796875 24.863281 Z M 53.796875 24.863281 " fill-opacity="1" fill-rule="nonzero"/><path fill="#dea96f" d="M 55.152344 24.015625 C 55.492188 23.484375 55.96875 23.078125 56.554688 22.832031 C 56.601562 22.8125 56.558594 22.742188 56.511719 22.761719 C 55.917969 23.015625 55.421875 23.433594 55.078125 23.976562 C 55.050781 24.019531 55.121094 24.0625 55.152344 24.015625 Z M 55.152344 24.015625 " fill-opacity="1" fill-rule="nonzero"/><path fill="#dea96f" d="M 9.53125 33.960938 C 8.914062 33.699219 8.328125 33.375 7.773438 33 C 7.730469 32.972656 7.6875 33.042969 7.730469 33.070312 C 8.285156 33.445312 8.875 33.769531 9.488281 34.03125 C 9.535156 34.054688 9.582031 33.984375 9.53125 33.960938 Z M 9.53125 33.960938 " fill-opacity="1" fill-rule="nonzero"/><path fill="#dea96f" d="M 8.625 34.3125 C 7.394531 33.804688 6.242188 33.113281 5.214844 32.265625 C 5.171875 32.230469 5.113281 32.289062 5.15625 32.320312 C 6.195312 33.179688 7.359375 33.875 8.605469 34.394531 C 8.648438 34.417969 8.671875 34.335938 8.625 34.3125 Z M 8.625 34.3125 " fill-opacity="1" fill-rule="nonzero"/><g clip-path="url(#3b8815706e)"><path fill="#33190a" d="M 54.359375 8.445312 C 53.960938 8.28125 53.527344 8.1875 53.101562 8.125 C 52.226562 7.992188 51.332031 7.992188 50.457031 7.855469 C 49.546875 7.710938 48.730469 7.351562 47.898438 6.957031 C 47.105469 6.582031 46.308594 6.257812 45.441406 6.082031 C 43.652344 5.71875 41.824219 5.832031 40.015625 5.773438 C 38.09375 5.714844 36.179688 5.425781 34.328125 4.914062 C 33.742188 4.753906 32.503906 4.394531 32.027344 4.253906 C 31.410156 4.070312 30.609375 3.621094 30.230469 4.382812 C 29.921875 5.007812 30.085938 5.816406 30.117188 6.480469 C 30.117188 6.519531 30.117188 6.554688 30.117188 6.589844 C 30.117188 6.835938 30.128906 7.082031 30.140625 7.324219 C 30.152344 8.003906 30.152344 8.683594 30.132812 9.363281 C 30.070312 11.324219 29.867188 13.28125 29.515625 15.210938 C 29.367188 16.039062 29.230469 16.90625 28.859375 17.667969 C 28.683594 18.03125 28.449219 18.367188 28.136719 18.625 C 27.84375 18.875 27.496094 19.070312 27.261719 19.386719 C 26.867188 19.921875 26.992188 20.617188 27.671875 20.796875 C 28.046875 20.898438 28.4375 20.894531 28.816406 20.980469 C 29.238281 21.078125 29.644531 21.222656 30.042969 21.386719 C 30.851562 21.714844 31.628906 22.113281 32.464844 22.363281 C 33.273438 22.609375 34.113281 22.738281 34.957031 22.820312 C 36.671875 22.992188 38.429688 22.976562 40.101562 23.429688 C 40.964844 23.664062 41.726562 24.054688 42.5 24.492188 C 43.246094 24.917969 44.003906 25.292969 44.859375 25.449219 C 46.644531 25.769531 48.453125 25.351562 50.25 25.449219 C 50.71875 25.472656 51.148438 25.570312 51.542969 25.835938 C 51.808594 26.011719 52.109375 26.269531 52.445312 26.28125 C 53.171875 26.300781 53.039062 25.4375 52.925781 24.988281 C 52.675781 24.015625 52.882812 23.046875 53.066406 22.082031 C 53.242188 21.160156 53.378906 20.226562 53.484375 19.296875 C 53.691406 17.421875 53.699219 15.558594 53.6875 13.675781 C 53.6875 12.84375 53.710938 12.007812 53.917969 11.195312 C 54.019531 10.792969 54.164062 10.402344 54.371094 10.042969 C 54.542969 9.738281 54.835938 9.433594 54.851562 9.066406 C 54.871094 8.75 54.636719 8.558594 54.359375 8.445312 Z M 54.359375 8.445312 " fill-opacity="1" fill-rule="nonzero"/></g><path fill="#1a0c04" d="M 44.425781 16.640625 C 45.925781 17.902344 47.878906 18.558594 49.84375 18.457031 C 49.898438 18.453125 49.898438 18.371094 49.84375 18.375 C 47.902344 18.476562 45.972656 17.828125 44.484375 16.582031 C 44.441406 16.546875 44.382812 16.605469 44.425781 16.640625 Z M 44.425781 16.640625 " fill-opacity="1" fill-rule="nonzero"/><path fill="#1a0c04" d="M 44.144531 17.5 C 44.265625 18.070312 44.640625 18.542969 45.167969 18.796875 C 45.214844 18.816406 45.257812 18.75 45.210938 18.726562 C 44.699219 18.484375 44.34375 18.035156 44.222656 17.480469 C 44.210938 17.425781 44.128906 17.445312 44.144531 17.5 Z M 44.144531 17.5 " fill-opacity="1" fill-rule="nonzero"/><path fill="#f28f55" d="M 54.015625 30.296875 C 53.5625 28.007812 53.148438 25.203125 51.8125 23.253906 C 50.832031 21.816406 49.066406 20.101562 43.332031 19.945312 C 43.332031 19.945312 39.757812 20.667969 38.023438 21.082031 C 37.523438 20.046875 37.027344 19.007812 36.535156 17.972656 C 35.757812 16.335938 34.808594 12.839844 34.808594 12.839844 C 34.71875 12.859375 34.628906 12.875 34.539062 12.894531 C 34.511719 12.648438 34.480469 12.414062 34.445312 12.238281 C 36.949219 12.617188 42.945312 14.148438 43.046875 14.152344 C 43.398438 14.542969 43.71875 14.992188 44.210938 15.203125 C 44.554688 15.347656 44.9375 15.378906 45.285156 15.53125 C 45.566406 15.65625 45.839844 15.800781 46.140625 15.878906 C 46.449219 15.953125 46.765625 15.945312 47.082031 15.9375 C 47.359375 15.933594 47.742188 16 48.003906 15.902344 C 48.132812 15.855469 48.199219 15.742188 48.183594 15.601562 C 48.175781 15.523438 48.148438 15.460938 48.101562 15.410156 C 48.386719 15.40625 48.671875 15.378906 48.957031 15.332031 C 49.25 15.285156 50.058594 15.203125 50.039062 14.753906 C 50.03125 14.609375 49.933594 14.542969 49.804688 14.527344 C 49.5 14.484375 49.144531 14.5625 48.835938 14.566406 C 48.164062 14.582031 47.476562 14.507812 46.921875 14.125 C 47.898438 14.316406 48.867188 14.34375 49.847656 14.003906 C 50.089844 13.917969 50.46875 13.730469 50.34375 13.402344 C 50.289062 13.265625 50.167969 13.226562 50.03125 13.222656 C 49.902344 13.210938 49.765625 13.222656 49.628906 13.238281 C 49.664062 13.207031 49.699219 13.175781 49.726562 13.140625 C 49.882812 12.953125 49.8125 12.742188 49.582031 12.667969 C 49.140625 12.519531 48.597656 12.695312 48.140625 12.644531 C 47.664062 12.589844 47.199219 12.390625 46.765625 12.1875 C 47.140625 12.167969 47.515625 12.175781 47.875 12.292969 C 48.097656 12.371094 48.738281 12.53125 48.816406 12.207031 C 48.890625 11.875 48.042969 11.589844 47.699219 11.519531 C 47.214844 11.421875 46.726562 11.359375 46.238281 11.277344 C 45.765625 11.191406 45.304688 11.070312 44.832031 10.984375 C 44.132812 10.859375 43.433594 10.871094 42.753906 11.035156 C 40.433594 10.457031 38.113281 9.84375 35.832031 9.125 C 35 8.863281 34.175781 8.585938 33.355469 8.292969 C 32.539062 8.003906 31.730469 7.628906 30.894531 7.410156 C 30.25 7.242188 29.546875 7.203125 28.929688 7.492188 C 28.34375 7.769531 28.011719 8.3125 27.875 8.929688 C 27.683594 9.789062 27.710938 10.722656 27.734375 11.59375 C 27.753906 12.269531 27.832031 13.339844 27.921875 14.09375 C 27.929688 14.179688 27.9375 14.261719 27.953125 14.335938 L 27.972656 14.335938 C 29.132812 20.085938 30.894531 25.316406 31.246094 26.167969 C 32.476562 29.144531 33.03125 34.898438 33 37.25 C 32.980469 38.488281 32.953125 39.726562 32.917969 40.964844 L 51.085938 40.964844 C 50.730469 38.023438 50.359375 35.085938 49.96875 32.152344 C 51.863281 31.613281 54.015625 30.296875 54.015625 30.296875 Z M 54.015625 30.296875 " fill-opacity="1" fill-rule="nonzero"/><path fill="#f28f55" d="M 37.140625 19.714844 C 37.195312 20.609375 37.265625 21.085938 37.152344 21.433594 C 37.121094 21.527344 37.085938 21.582031 36.988281 21.644531 C 39.320312 21.867188 42.152344 20.960938 43.328125 19.945312 C 42.945312 19.804688 42.695312 19.507812 42.609375 19.191406 C 42.136719 17.515625 41.902344 17.152344 41.996094 15.753906 C 41.996094 15.753906 41.070312 14.265625 40.359375 13.640625 C 38.761719 12.226562 34.820312 10.132812 34.820312 10.132812 C 33.167969 11.847656 33.765625 14.230469 33.765625 14.230469 C 33.832031 14.746094 33.9375 15.246094 34.074219 15.722656 C 34.238281 16.269531 34.734375 19.929688 37.140625 19.714844 Z M 37.140625 19.714844 " fill-opacity="1" fill-rule="nonzero"/><path fill="#b05723" d="M 36.84375 14.3125 C 36.792969 14.230469 36.75 14.027344 36.84375 13.941406 C 36.902344 13.890625 36.976562 13.835938 37.15625 13.792969 C 37.410156 13.726562 38.246094 13.734375 38.5 13.78125 C 39.085938 13.890625 39.300781 14.289062 39.1875 14.28125 C 38.898438 14.25 38.40625 14.21875 37.628906 14.265625 C 37.3125 14.289062 36.867188 14.34375 36.84375 14.3125 Z M 36.84375 14.3125 " fill-opacity="1" fill-rule="nonzero"/><path fill="#bd632d" d="M 36.070312 15.824219 C 36.070312 15.917969 36.046875 16.003906 36.019531 16.09375 C 35.992188 16.175781 35.945312 16.269531 35.964844 16.359375 C 35.980469 16.433594 36.039062 16.488281 36.105469 16.515625 C 36.1875 16.550781 36.285156 16.539062 36.371094 16.527344 C 36.425781 16.523438 36.410156 16.4375 36.359375 16.445312 C 36.285156 16.457031 36.203125 16.464844 36.132812 16.4375 C 36.070312 16.410156 36.03125 16.351562 36.042969 16.28125 C 36.058594 16.210938 36.09375 16.136719 36.113281 16.0625 C 36.132812 15.984375 36.148438 15.910156 36.148438 15.828125 C 36.152344 15.777344 36.070312 15.773438 36.070312 15.824219 Z M 36.070312 15.824219 " fill-opacity="1" fill-rule="nonzero"/><path fill="#33190a" d="M 37.140625 15.613281 C 37.449219 15.707031 37.738281 15.679688 38.027344 15.53125 C 38.074219 15.503906 38.03125 15.429688 37.984375 15.457031 C 37.714844 15.59375 37.453125 15.617188 37.164062 15.53125 C 37.105469 15.515625 37.085938 15.597656 37.140625 15.613281 Z M 37.140625 15.613281 " fill-opacity="1" fill-rule="nonzero"/><path fill="#33190a" d="M 34.597656 15.871094 C 34.910156 15.964844 35.195312 15.9375 35.480469 15.789062 C 35.53125 15.761719 35.488281 15.691406 35.441406 15.714844 C 35.175781 15.851562 34.910156 15.875 34.625 15.789062 C 34.570312 15.773438 34.546875 15.855469 34.597656 15.871094 Z M 34.597656 15.871094 " fill-opacity="1" fill-rule="nonzero"/><path fill="#b05723" d="M 35.371094 14.0625 C 35.304688 14.023438 35.21875 13.988281 35.035156 13.980469 C 34.789062 13.972656 34.050781 14.121094 33.769531 14.21875 L 33.839844 14.6875 C 34.082031 14.632812 34.300781 14.59375 34.667969 14.542969 C 34.980469 14.496094 35.429688 14.460938 35.441406 14.425781 C 35.476562 14.335938 35.476562 14.128906 35.371094 14.0625 Z M 35.371094 14.0625 " fill-opacity="1" fill-rule="nonzero"/><path fill="#b05723" d="M 42.816406 8.835938 C 42.304688 8.105469 41.550781 7.566406 40.683594 7.347656 C 39.632812 7.078125 38.484375 7.28125 37.582031 7.882812 C 37.007812 7.722656 36.324219 7.824219 35.765625 7.9375 C 35.042969 8.082031 34.417969 8.417969 34.003906 9.039062 C 33.5625 9.691406 33.34375 10.476562 32.96875 11.164062 C 32.566406 11.902344 32.085938 12.609375 31.9375 13.449219 C 31.933594 13.488281 31.988281 13.519531 32.007812 13.480469 C 32.167969 13.183594 32.367188 12.914062 32.605469 12.675781 C 32.28125 13.269531 32.164062 13.941406 32.265625 14.613281 C 32.273438 14.652344 32.328125 14.648438 32.335938 14.613281 C 32.523438 13.984375 32.929688 13.578125 33.375 13.113281 C 33.21875 13.570312 32.914062 13.867188 32.886719 14.363281 C 32.882812 14.394531 32.929688 14.414062 32.949219 14.386719 C 33.230469 14.042969 33.53125 13.722656 33.863281 13.421875 C 33.753906 13.59375 33.671875 13.777344 33.671875 13.992188 C 33.671875 14.03125 33.722656 14.042969 33.742188 14.011719 C 33.882812 13.78125 34.042969 13.554688 34.273438 13.394531 C 34.453125 13.265625 34.664062 13.179688 34.859375 13.0625 C 35.128906 12.890625 35.34375 12.652344 35.542969 12.40625 C 35.34375 12.800781 35.003906 13.121094 34.9375 13.570312 C 34.933594 13.601562 34.964844 13.636719 34.992188 13.613281 C 35.863281 13.003906 37.097656 12.664062 37.875 11.90625 C 38.167969 12.339844 38.625 12.632812 39.0625 12.917969 C 39.703125 13.335938 40.21875 13.824219 40.554688 14.519531 C 40.566406 14.546875 40.613281 14.542969 40.621094 14.507812 C 40.660156 14.347656 40.671875 14.1875 40.664062 14.027344 C 40.707031 14.164062 41.53125 15.230469 41.449219 15.925781 C 41.363281 16.683594 41.246094 17.460938 41.589844 18.179688 C 41.609375 18.222656 41.664062 18.191406 41.65625 18.152344 C 41.625 17.941406 41.617188 17.742188 41.636719 17.53125 C 41.710938 17.820312 41.828125 18.085938 41.988281 18.339844 C 42.007812 18.375 42.0625 18.351562 42.054688 18.3125 C 42.007812 18.101562 41.980469 17.890625 41.972656 17.675781 C 42.03125 17.785156 42.117188 17.867188 42.238281 17.9375 C 42.261719 17.953125 42.289062 17.933594 42.289062 17.90625 C 42.296875 17.351562 42.707031 16.941406 42.945312 16.472656 C 43.175781 16.019531 43.175781 15.535156 43.140625 15.039062 C 43.097656 14.429688 43.089844 13.851562 43.1875 13.246094 C 43.28125 12.667969 43.414062 12.097656 43.472656 11.519531 C 43.574219 10.566406 43.371094 9.632812 42.816406 8.835938 Z M 42.816406 8.835938 " fill-opacity="1" fill-rule="nonzero"/><path fill="#f28f55" d="M 41.097656 14.160156 C 40.59375 14.402344 40.300781 14.875 40.539062 15.378906 C 40.78125 15.882812 41.378906 16.09375 41.882812 15.855469 C 42.382812 15.617188 42.59375 15.015625 42.359375 14.511719 C 42.117188 14.011719 41.597656 13.921875 41.097656 14.160156 Z M 41.097656 14.160156 " fill-opacity="1" fill-rule="nonzero"/><path fill="#bd632d" d="M 41.679688 14.417969 C 41.546875 14.453125 41.445312 14.558594 41.371094 14.664062 C 41.285156 14.792969 41.214844 14.9375 41.191406 15.089844 C 41.175781 15.175781 41.175781 15.269531 41.191406 15.355469 C 41.207031 15.40625 41.125 15.425781 41.113281 15.375 C 41.074219 15.203125 41.109375 15.023438 41.175781 14.863281 C 41.238281 14.71875 41.324219 14.574219 41.441406 14.464844 C 41.507812 14.40625 41.582031 14.363281 41.667969 14.339844 C 41.714844 14.324219 41.730469 14.40625 41.679688 14.417969 Z M 41.679688 14.417969 " fill-opacity="1" fill-rule="nonzero"/><path fill="#8f4214" d="M 37.925781 11.898438 C 38.453125 10.996094 38.480469 9.875 37.996094 8.949219 C 37.972656 8.90625 37.910156 8.941406 37.933594 8.984375 C 38.40625 9.886719 38.378906 10.984375 37.863281 11.859375 C 37.835938 11.902344 37.902344 11.9375 37.925781 11.898438 Z M 37.925781 11.898438 " fill-opacity="1" fill-rule="nonzero"/><path fill="#8f4214" d="M 35.558594 12.421875 C 35.824219 11.988281 36.183594 11.628906 36.558594 11.296875 C 36.875 11.015625 37.160156 10.769531 37.246094 10.339844 C 37.253906 10.289062 37.179688 10.269531 37.175781 10.320312 C 37.078125 10.820312 36.671875 11.085938 36.320312 11.414062 C 36.007812 11.703125 35.71875 12.019531 35.496094 12.382812 C 35.46875 12.425781 35.53125 12.460938 35.558594 12.421875 Z M 35.558594 12.421875 " fill-opacity="1" fill-rule="nonzero"/><path fill="#8f4214" d="M 40.695312 13.984375 C 40.519531 13.214844 40.15625 12.515625 39.621094 11.9375 C 39.589844 11.902344 39.535156 11.953125 39.570312 11.988281 C 40.097656 12.558594 40.453125 13.246094 40.625 14.003906 C 40.628906 14.050781 40.703125 14.03125 40.695312 13.984375 Z M 40.695312 13.984375 " fill-opacity="1" fill-rule="nonzero"/><path fill="#8f4214" d="M 37.25 9.816406 C 37.265625 9.667969 37.246094 9.527344 37.199219 9.390625 C 37.183594 9.347656 37.113281 9.367188 37.128906 9.410156 C 37.175781 9.542969 37.191406 9.679688 37.175781 9.816406 C 37.175781 9.863281 37.246094 9.863281 37.25 9.816406 Z M 37.25 9.816406 " fill-opacity="1" fill-rule="nonzero"/><path fill="#8f4214" d="M 33.863281 13.433594 C 34.246094 12.515625 35.101562 11.957031 35.796875 11.296875 C 35.832031 11.261719 35.777344 11.207031 35.742188 11.242188 C 35.035156 11.917969 34.183594 12.480469 33.792969 13.414062 C 33.773438 13.457031 33.847656 13.476562 33.863281 13.433594 Z M 33.863281 13.433594 " fill-opacity="1" fill-rule="nonzero"/><path fill="#8f4214" d="M 40.988281 13.136719 C 40.8125 12.113281 40.382812 11.164062 39.734375 10.351562 C 39.707031 10.3125 39.652344 10.367188 39.683594 10.402344 C 40.324219 11.207031 40.742188 12.148438 40.917969 13.15625 C 40.925781 13.207031 40.996094 13.1875 40.988281 13.136719 Z M 40.988281 13.136719 " fill-opacity="1" fill-rule="nonzero"/><path fill="#bd632d" d="M 31.65625 10.980469 C 31.871094 11.363281 32.09375 11.746094 32.433594 12.027344 C 32.46875 12.058594 32.523438 12.007812 32.484375 11.976562 C 32.148438 11.695312 31.929688 11.320312 31.722656 10.941406 C 31.699219 10.898438 31.636719 10.933594 31.65625 10.980469 Z M 31.65625 10.980469 " fill-opacity="1" fill-rule="nonzero"/><path fill="#bd632d" d="M 49.589844 13.21875 C 48.609375 13.46875 47.59375 13.46875 46.613281 13.214844 C 46.566406 13.203125 46.546875 13.277344 46.59375 13.285156 C 47.585938 13.539062 48.617188 13.539062 49.613281 13.289062 C 49.65625 13.277344 49.636719 13.207031 49.589844 13.21875 Z M 49.589844 13.21875 " fill-opacity="1" fill-rule="nonzero"/><path fill="#bd632d" d="M 48.09375 15.34375 C 47.347656 15.066406 46.480469 15.066406 45.8125 14.59375 C 45.167969 14.128906 45.167969 13.238281 44.5625 12.722656 C 44.527344 12.691406 44.472656 12.746094 44.511719 12.773438 C 45.121094 13.292969 45.117188 14.183594 45.777344 14.652344 C 46.449219 15.132812 47.320312 15.132812 48.074219 15.410156 C 48.117188 15.429688 48.136719 15.359375 48.09375 15.34375 Z M 48.09375 15.34375 " fill-opacity="1" fill-rule="nonzero"/><path fill="#bd632d" d="M 35.597656 17.613281 C 35.992188 17.933594 36.714844 17.875 37.15625 17.695312 C 37.199219 17.675781 37.179688 17.605469 37.136719 17.625 C 36.726562 17.789062 36.023438 17.863281 35.652344 17.5625 C 35.613281 17.53125 35.558594 17.585938 35.597656 17.613281 Z M 35.597656 17.613281 " fill-opacity="1" fill-rule="nonzero"/><path fill="#d6743c" d="M 35.605469 22.164062 C 35.144531 21.804688 34.074219 20.78125 34.074219 20.78125 C 33.875 20.039062 33.789062 19.546875 33.390625 18.886719 C 33.175781 18.523438 32.734375 18.226562 32.519531 17.859375 C 32.332031 17.546875 32.304688 17.335938 32.191406 16.960938 C 32.132812 16.765625 32.011719 16.15625 31.804688 16.15625 C 31.660156 16.152344 31.601562 16.300781 31.585938 16.449219 C 31.542969 17.058594 31.691406 17.707031 31.925781 18.292969 C 31.738281 18.105469 31.539062 17.929688 31.398438 17.707031 C 31.195312 17.375 31.101562 16.992188 31.035156 16.613281 C 30.976562 16.261719 30.941406 15.902344 30.855469 15.554688 C 30.824219 15.425781 30.777344 15.117188 30.59375 15.101562 C 30.296875 15.074219 30.257812 15.707031 30.285156 16.148438 C 30.222656 15.871094 30.160156 15.625 30.089844 15.320312 C 30.023438 15.03125 29.777344 14.8125 29.621094 15.117188 C 29.464844 15.425781 29.566406 16.578125 29.59375 16.929688 C 29.621094 17.222656 29.640625 17.515625 29.75 17.792969 C 29.820312 17.96875 29.914062 18.132812 30.011719 18.292969 C 29.707031 18.105469 29.585938 17.972656 29.488281 17.734375 C 29.367188 17.445312 29.347656 17.109375 29.296875 16.804688 C 29.265625 16.613281 29.175781 15.828125 28.84375 15.953125 C 28.683594 16.011719 28.664062 16.402344 28.652344 16.558594 C 28.628906 16.894531 28.757812 17.898438 28.820312 18.054688 C 28.742188 18.175781 28.78125 18.40625 28.847656 18.53125 C 28.984375 18.800781 29.113281 19.054688 29.203125 19.339844 C 29.277344 19.582031 29.320312 19.832031 29.429688 20.0625 C 29.628906 20.476562 29.960938 20.910156 30.347656 21.164062 C 30.644531 21.355469 30.984375 21.46875 31.320312 21.582031 C 31.320312 21.585938 35.957031 27.105469 37.136719 29.023438 C 35.605469 29.402344 29.941406 32.664062 28.675781 32.910156 C 27.621094 33.117188 25.691406 33.066406 23.8125 33.25 L 18.433594 31.863281 C 17.285156 31.308594 16.808594 31.15625 15.605469 30.804688 C 14.585938 30.507812 8.496094 25.035156 8.023438 24.625 C 10.359375 23.582031 16.242188 20.148438 16.246094 20.140625 C 16.601562 20.125 16.957031 20.101562 17.296875 20 C 17.738281 19.859375 18.175781 19.527344 18.476562 19.179688 C 18.644531 18.988281 18.753906 18.757812 18.886719 18.542969 C 19.050781 18.292969 19.246094 18.078125 19.445312 17.855469 C 19.542969 17.75 19.640625 17.539062 19.601562 17.402344 C 19.699219 17.265625 20.09375 16.332031 20.160156 16.003906 C 20.191406 15.847656 20.277344 15.464844 20.136719 15.367188 C 19.851562 15.160156 19.558594 15.898438 19.476562 16.074219 C 19.34375 16.351562 19.234375 16.671875 19.042969 16.914062 C 18.878906 17.121094 18.734375 17.21875 18.386719 17.316406 C 18.523438 17.1875 18.660156 17.058594 18.773438 16.90625 C 18.949219 16.667969 19.050781 16.394531 19.152344 16.117188 C 19.273438 15.785156 19.675781 14.699219 19.609375 14.359375 C 19.542969 14.027344 19.246094 14.167969 19.105469 14.433594 C 18.953125 14.707031 18.824219 14.929688 18.695312 15.183594 C 18.839844 14.765625 18.96875 14.144531 18.679688 14.09375 C 18.496094 14.058594 18.371094 14.34375 18.304688 14.460938 C 18.128906 14.773438 17.996094 15.109375 17.84375 15.433594 C 17.679688 15.78125 17.492188 16.128906 17.203125 16.390625 C 17.007812 16.570312 16.773438 16.691406 16.539062 16.820312 C 16.921875 16.316406 17.234375 15.730469 17.355469 15.132812 C 17.382812 14.984375 17.363281 14.824219 17.222656 14.789062 C 17.019531 14.738281 16.742188 15.292969 16.632812 15.464844 C 16.425781 15.796875 16.339844 15.992188 16.082031 16.246094 C 15.773438 16.542969 15.273438 16.710938 14.96875 17.003906 C 14.410156 17.53125 13.804688 18.652344 13.804688 18.652344 C 11.410156 19.796875 4.316406 21.210938 2.746094 22.824219 C 2.128906 23.457031 2.285156 24.550781 2.722656 25.28125 C 4.546875 28.332031 12.039062 33.375 12.957031 34.359375 C 13.910156 36.183594 13.058594 38.125 12.097656 40.117188 L 26.664062 40.117188 C 26.867188 39.722656 27.082031 39.332031 27.308594 38.949219 C 30.636719 37.261719 39.058594 33.757812 40.738281 32.714844 C 41.617188 32.167969 42.5 31.242188 42.519531 30.164062 C 42.5625 27.867188 35.605469 22.164062 35.605469 22.164062 Z M 35.605469 22.164062 " fill-opacity="1" fill-rule="nonzero"/><path fill="#33190a" d="M 34.199219 21.828125 C 33.871094 21.691406 33.53125 21.597656 33.207031 21.449219 C 32.839844 21.285156 32.558594 21.054688 32.269531 20.78125 C 31.875 20.410156 31.40625 20.011719 30.84375 20.078125 C 31.53125 19.425781 32.648438 20.144531 33.378906 20.371094 C 33.414062 20.382812 33.441406 20.351562 33.433594 20.316406 C 33.160156 19.449219 32.480469 18.886719 31.621094 18.640625 C 31.070312 18.480469 30.59375 18.328125 30.183594 17.90625 C 29.867188 17.585938 29.601562 17.214844 29.238281 16.941406 C 28.503906 16.386719 27.546875 16.203125 26.65625 16.433594 C 25.78125 16.660156 25.039062 17.199219 24.246094 17.605469 C 23.78125 17.84375 23.300781 18.027344 22.785156 18.101562 C 22.230469 18.179688 21.667969 18.160156 21.109375 18.210938 C 20.207031 18.296875 19.378906 18.652344 18.734375 19.292969 C 18.675781 19.351562 18.625 19.410156 18.574219 19.46875 C 17.816406 19.972656 17.25 20.695312 17.128906 21.667969 C 17.078125 22.09375 17.054688 22.519531 16.875 22.917969 C 16.71875 23.257812 16.476562 23.542969 16.277344 23.855469 C 15.9375 24.402344 15.6875 25.039062 15.804688 25.695312 C 15.910156 26.277344 16.339844 26.773438 16.929688 26.859375 C 17.003906 26.886719 17.089844 26.90625 17.183594 26.914062 C 17.335938 26.929688 17.464844 26.914062 17.582031 26.863281 C 17.78125 26.773438 23.90625 28.472656 23.839844 28.875 C 23.753906 29.417969 23.820312 29.992188 24.117188 30.453125 C 24.324219 30.960938 24.769531 31.359375 25.34375 31.460938 C 26.167969 31.609375 26.996094 31.074219 27.503906 30.46875 C 27.761719 30.160156 27.9375 29.796875 28.171875 29.46875 C 28.496094 29.015625 28.929688 28.78125 29.496094 28.800781 C 30.421875 28.832031 31.300781 29.347656 32.191406 28.855469 C 32.574219 28.644531 32.824219 28.316406 33.019531 27.9375 C 33.238281 27.519531 33.417969 27.050781 33.847656 26.804688 C 33.890625 26.777344 33.847656 26.707031 33.804688 26.734375 C 33.179688 27.09375 33.078125 27.863281 32.644531 28.382812 C 32.359375 28.722656 31.933594 28.945312 31.492188 28.992188 C 30.976562 29.042969 30.476562 28.863281 29.976562 28.773438 C 29.605469 28.703125 29.203125 28.671875 28.839844 28.808594 C 28.539062 28.925781 28.3125 29.144531 28.128906 29.398438 C 27.886719 29.726562 27.710938 30.09375 27.453125 30.40625 C 27.179688 30.738281 26.824219 31.011719 26.4375 31.203125 C 25.9375 31.445312 25.375 31.476562 24.878906 31.203125 C 24.679688 31.089844 24.515625 30.941406 24.386719 30.757812 C 24.796875 31.144531 25.363281 31.289062 25.898438 31.085938 C 26.511719 30.855469 26.9375 30.292969 27.296875 29.769531 C 27.714844 29.160156 28.175781 28.453125 28.949219 28.269531 C 29.667969 28.097656 30.402344 28.371094 31.125 28.414062 C 31.875 28.457031 32.449219 28.15625 32.875 27.546875 C 33.351562 26.878906 33.683594 25.917969 34.574219 25.710938 C 34.609375 25.703125 34.628906 25.65625 34.59375 25.636719 C 34.28125 25.453125 33.9375 25.515625 33.632812 25.679688 C 33.203125 25.90625 32.839844 26.199219 32.367188 26.347656 C 32.101562 26.429688 31.902344 26.585938 31.195312 26.476562 C 31.195312 26.476562 31.300781 26.339844 31.335938 26.304688 C 31.589844 26.089844 31.925781 26.011719 32.238281 25.90625 C 32.503906 25.820312 32.78125 25.714844 32.972656 25.503906 C 33.234375 25.21875 33.265625 24.820312 33.390625 24.46875 C 33.578125 23.960938 34.074219 23.6875 34.609375 23.757812 C 35.121094 23.824219 35.515625 24.1875 35.78125 24.609375 C 35.800781 24.640625 35.851562 24.621094 35.855469 24.585938 C 36.003906 23.386719 35.300781 22.289062 34.199219 21.828125 Z M 34.199219 21.828125 " fill-opacity="1" fill-rule="nonzero"/><path fill="#d6743c" d="M 19.175781 30.417969 C 18.933594 31.257812 18.816406 31.484375 18.601562 31.769531 C 18.5625 31.820312 18.542969 31.835938 18.433594 31.863281 C 19.148438 33.425781 22.699219 34.015625 23.8125 33.25 C 23.40625 32.894531 23.46875 32.550781 23.464844 32.226562 C 23.441406 30.390625 23.738281 29.65625 24.289062 28.402344 C 24.289062 28.402344 24.507812 27.433594 24.027344 26.644531 C 23.082031 25.082031 23.539062 24.433594 23.261719 23.777344 C 22.464844 21.910156 21 22.242188 21 22.242188 C 20.480469 22.308594 20.199219 21.949219 20.199219 21.949219 C 18.242188 21.59375 17.6875 24.339844 17.6875 24.339844 C 17.578125 24.828125 17.511719 25.324219 17.480469 25.804688 C 17.445312 26.359375 17.539062 30.128906 19.175781 30.417969 Z M 19.175781 30.417969 " fill-opacity="1" fill-rule="nonzero"/><path fill="#33190a" d="M 20.699219 25.054688 C 20.6875 24.96875 20.753906 24.855469 20.867188 24.828125 C 20.9375 24.8125 21.027344 24.832031 21.125 24.863281 C 21.371094 24.941406 21.65625 25.058594 21.863281 25.199219 C 22.609375 25.707031 22.839844 26.226562 22.714844 26.109375 C 22.507812 25.914062 22.105469 25.710938 21.355469 25.347656 C 21.082031 25.214844 20.703125 25.089844 20.699219 25.054688 Z M 20.699219 25.054688 " fill-opacity="1" fill-rule="nonzero"/><path fill="#9e4c1f" d="M 19.269531 26.546875 C 19.238281 26.636719 19.191406 26.707031 19.132812 26.78125 C 19.082031 26.847656 19.007812 26.917969 18.996094 27.003906 C 18.984375 27.078125 19.019531 27.148438 19.074219 27.191406 C 19.144531 27.25 19.234375 27.273438 19.316406 27.292969 C 19.367188 27.304688 19.378906 27.226562 19.332031 27.210938 C 19.261719 27.195312 19.183594 27.179688 19.128906 27.132812 C 19.078125 27.085938 19.0625 27.023438 19.097656 26.964844 C 19.136719 26.898438 19.1875 26.84375 19.234375 26.785156 C 19.277344 26.722656 19.316406 26.65625 19.34375 26.582031 C 19.363281 26.535156 19.289062 26.5 19.269531 26.546875 Z M 19.269531 26.546875 " fill-opacity="1" fill-rule="nonzero"/><path fill="#9e4c1f" d="M 19.175781 30.417969 C 20.089844 30.460938 21.058594 30.359375 21.820312 29.808594 C 21.863281 29.777344 21.90625 29.84375 21.867188 29.875 C 21.082031 30.445312 20.09375 30.550781 19.148438 30.5 Z M 19.175781 30.417969 " fill-opacity="1" fill-rule="nonzero"/><path fill="#33190a" d="M 19.195312 24.378906 C 19.136719 24.335938 19.042969 24.320312 18.941406 24.308594 C 18.683594 24.289062 18.378906 24.289062 18.132812 24.339844 C 17.941406 24.378906 17.804688 24.414062 17.65625 24.46875 C 17.65625 24.46875 17.644531 24.515625 17.632812 24.585938 C 17.617188 24.671875 17.605469 24.738281 17.605469 24.738281 C 17.851562 24.710938 18.148438 24.691406 18.542969 24.671875 C 18.847656 24.652344 19.246094 24.683594 19.265625 24.652344 C 19.304688 24.570312 19.289062 24.445312 19.195312 24.378906 Z M 19.195312 24.378906 " fill-opacity="1" fill-rule="nonzero"/><path fill="#d6743c" d="M 24.292969 26.589844 C 23.757812 26.644531 23.332031 26.984375 23.386719 27.523438 C 23.441406 28.058594 23.921875 28.453125 24.457031 28.398438 C 24.996094 28.34375 25.390625 27.863281 25.335938 27.324219 C 25.28125 26.789062 24.832031 26.535156 24.292969 26.589844 Z M 24.292969 26.589844 " fill-opacity="1" fill-rule="nonzero"/><path fill="#9e4c1f" d="M 24.746094 27.019531 C 24.613281 27.007812 24.488281 27.070312 24.382812 27.144531 C 24.257812 27.234375 24.152344 27.34375 24.074219 27.472656 C 24.027344 27.546875 24 27.628906 23.988281 27.714844 C 23.980469 27.765625 23.902344 27.757812 23.90625 27.707031 C 23.929688 27.539062 24.019531 27.382812 24.132812 27.261719 C 24.242188 27.148438 24.363281 27.042969 24.507812 26.984375 C 24.585938 26.949219 24.671875 26.933594 24.753906 26.941406 C 24.808594 26.941406 24.796875 27.019531 24.746094 27.019531 Z M 24.746094 27.019531 " fill-opacity="1" fill-rule="nonzero"/><path fill="#33190a" d="M 20.320312 26.707031 C 20.574219 26.894531 20.847656 26.960938 21.160156 26.917969 C 21.210938 26.914062 21.1875 26.832031 21.136719 26.839844 C 20.84375 26.878906 20.59375 26.808594 20.363281 26.636719 C 20.320312 26.601562 20.277344 26.675781 20.320312 26.707031 Z M 20.320312 26.707031 " fill-opacity="1" fill-rule="nonzero"/><path fill="#33190a" d="M 17.910156 26.113281 C 18.164062 26.304688 18.4375 26.367188 18.746094 26.324219 C 18.796875 26.320312 18.773438 26.238281 18.722656 26.246094 C 18.4375 26.285156 18.1875 26.21875 17.953125 26.046875 C 17.910156 26.011719 17.871094 26.082031 17.910156 26.113281 Z M 17.910156 26.113281 " fill-opacity="1" fill-rule="nonzero"/><path fill="#1a0c04" d="M 31.167969 26.4375 C 29.988281 25.910156 28.375 25.886719 27.515625 27.003906 C 27.316406 27.265625 27.167969 27.566406 26.988281 27.84375 C 26.785156 28.15625 26.546875 28.449219 26.273438 28.703125 C 25.664062 29.257812 24.820312 29.570312 24.003906 29.324219 C 23.953125 29.308594 23.929688 29.386719 23.980469 29.402344 C 25.320312 29.816406 26.488281 28.816406 27.144531 27.75 C 27.34375 27.433594 27.511719 27.09375 27.78125 26.832031 C 28.058594 26.566406 28.398438 26.382812 28.765625 26.277344 C 29.546875 26.050781 30.394531 26.1875 31.125 26.515625 C 31.175781 26.53125 31.214844 26.460938 31.167969 26.4375 Z M 31.167969 26.4375 " fill-opacity="1" fill-rule="nonzero"/><path fill="#1a0c04" d="M 20.207031 21.511719 C 20.050781 19.957031 21.347656 18.648438 22.910156 18.789062 C 22.964844 18.792969 22.964844 18.714844 22.910156 18.707031 C 21.304688 18.5625 19.964844 19.914062 20.125 21.511719 C 20.128906 21.5625 20.210938 21.5625 20.207031 21.511719 Z M 20.207031 21.511719 " fill-opacity="1" fill-rule="nonzero"/><path fill="#1a0c04" d="M 24.855469 18.9375 C 25.765625 19.085938 26.710938 19.308594 27.640625 19.269531 C 28.554688 19.226562 29.40625 18.871094 30.285156 18.644531 C 30.335938 18.632812 30.3125 18.554688 30.261719 18.566406 C 29.394531 18.785156 28.546875 19.144531 27.640625 19.183594 C 26.71875 19.226562 25.78125 19.003906 24.878906 18.855469 C 24.824219 18.847656 24.804688 18.925781 24.855469 18.9375 Z M 24.855469 18.9375 " fill-opacity="1" fill-rule="nonzero"/><path fill="#1a0c04" d="M 35.675781 23.933594 C 35.089844 22.972656 33.800781 22.855469 33.007812 23.636719 C 32.578125 24.058594 32.324219 24.613281 31.914062 25.046875 C 31.691406 25.28125 31.425781 25.476562 31.113281 25.554688 C 30.699219 25.652344 30.273438 25.5625 29.867188 25.476562 C 29.816406 25.46875 29.796875 25.546875 29.847656 25.558594 C 30.386719 25.671875 30.960938 25.777344 31.46875 25.503906 C 31.914062 25.261719 32.210938 24.835938 32.488281 24.429688 C 32.839844 23.925781 33.222656 23.386719 33.859375 23.234375 C 34.546875 23.074219 35.238281 23.378906 35.601562 23.976562 C 35.632812 24.019531 35.707031 23.976562 35.675781 23.933594 Z M 35.675781 23.933594 " fill-opacity="1" fill-rule="nonzero"/><path fill="#1a0c04" d="M 28.589844 25.480469 C 27.695312 25.339844 26.957031 25.886719 26.40625 26.527344 C 26.371094 26.566406 26.429688 26.625 26.464844 26.582031 C 26.992188 25.96875 27.707031 25.421875 28.566406 25.558594 C 28.617188 25.570312 28.640625 25.488281 28.589844 25.480469 Z M 28.589844 25.480469 " fill-opacity="1" fill-rule="nonzero"/><path fill="#33190a" d="M 23.25 25.597656 C 23.296875 24.847656 23.191406 24.074219 22.847656 23.394531 C 22.507812 22.714844 21.84375 22.027344 21.011719 22.167969 C 20.960938 22.175781 20.972656 22.257812 21.023438 22.25 C 22.140625 22.0625 22.855469 23.335938 23.066406 24.25 C 23.285156 25.195312 23.164062 26.183594 22.886719 27.097656 C 22.738281 27.574219 22.5625 28.042969 22.449219 28.53125 C 22.3125 29.089844 22.285156 29.664062 22.253906 30.234375 C 22.191406 31.285156 22.078125 32.4375 21.25 33.191406 C 21.214844 33.226562 21.265625 33.292969 21.304688 33.253906 C 21.875 32.730469 22.136719 31.988281 22.246094 31.238281 C 22.398438 30.203125 22.332031 29.171875 22.636719 28.15625 C 22.886719 27.304688 23.195312 26.492188 23.25 25.597656 Z M 23.25 25.597656 " fill-opacity="1" fill-rule="nonzero"/><path fill="#1a0c04" d="M 21.058594 22.21875 C 21.167969 21.476562 21.070312 20.632812 21.597656 20.03125 C 22.082031 19.480469 22.835938 19.292969 23.546875 19.328125 C 24.347656 19.371094 25.109375 19.660156 25.871094 19.882812 C 26.59375 20.09375 27.308594 20.191406 28.0625 20.171875 C 28.96875 20.144531 29.871094 20.019531 30.777344 20.101562 C 30.832031 20.109375 30.832031 20.027344 30.777344 20.019531 C 29.921875 19.945312 29.0625 20.050781 28.203125 20.085938 C 27.328125 20.121094 26.515625 19.996094 25.679688 19.738281 C 24.394531 19.34375 22.722656 18.789062 21.613281 19.894531 C 20.992188 20.515625 21.097656 21.398438 20.980469 22.195312 C 20.96875 22.246094 21.050781 22.269531 21.058594 22.21875 Z M 21.058594 22.21875 " fill-opacity="1" fill-rule="nonzero"/><path fill="#f28f55" d="M 54.59375 33.289062 C 54.328125 32.421875 54.128906 31.191406 54.015625 30.292969 C 54.015625 30.292969 51.632812 31.710938 49.917969 32.136719 C 49.917969 32.136719 49.96875 32.660156 50.003906 32.890625 C 49.347656 32.820312 41.441406 30.878906 40.132812 30.492188 C 38.875 30.113281 37.597656 29.699219 36.269531 29.933594 C 35.914062 29.996094 35.566406 30.082031 35.210938 30.160156 C 34.980469 30.207031 34.75 30.25 34.523438 30.28125 C 34.398438 30.296875 34.261719 30.289062 34.144531 30.328125 C 33.984375 30.378906 33.894531 30.515625 33.945312 30.683594 C 33.984375 30.808594 34.078125 30.875 34.191406 30.914062 C 33.753906 31.035156 33.304688 31.09375 32.847656 31.097656 C 32.59375 31.097656 32.144531 31.117188 32.296875 31.5 C 32.449219 31.867188 32.875 31.988281 33.234375 32.035156 C 33.480469 32.0625 33.730469 32.074219 33.980469 32.082031 C 33.921875 32.085938 33.867188 32.089844 33.8125 32.089844 C 33.589844 32.085938 33.371094 32.039062 33.148438 32.0625 C 32.871094 32.09375 32.753906 32.300781 32.898438 32.554688 C 33.023438 32.765625 33.246094 32.878906 33.480469 32.945312 C 33.425781 33 33.382812 33.074219 33.371094 33.164062 C 33.324219 33.472656 33.609375 33.683594 33.855469 33.792969 C 33.933594 33.828125 34.011719 33.863281 34.089844 33.886719 C 34.023438 33.960938 33.996094 34.066406 34.023438 34.175781 C 34.066406 34.371094 34.273438 34.46875 34.445312 34.539062 C 35.140625 34.808594 35.917969 34.808594 36.644531 34.714844 C 37.390625 34.613281 39.296875 34.382812 40.148438 33.863281 C 42.292969 34.5 45.203125 36.335938 48.007812 37.019531 C 50.367188 37.59375 51.09375 37.632812 52.519531 37.632812 C 55.703125 37.628906 54.972656 34.507812 54.59375 33.289062 Z M 54.59375 33.289062 " fill-opacity="1" fill-rule="nonzero"/><path fill="#bd632d" d="M 34.285156 30.945312 C 35.175781 30.597656 36.136719 30.5625 37.085938 30.542969 C 37.132812 30.542969 37.132812 30.46875 37.085938 30.472656 C 36.132812 30.492188 35.164062 30.523438 34.265625 30.875 C 34.222656 30.890625 34.238281 30.964844 34.285156 30.945312 Z M 34.285156 30.945312 " fill-opacity="1" fill-rule="nonzero"/><path fill="#9e4c1f" d="M 8 24.621094 C 7.402344 24.921875 6.753906 25.09375 6.085938 25.136719 C 6.03125 25.140625 6.03125 25.21875 6.085938 25.214844 C 6.769531 25.175781 7.429688 24.996094 8.042969 24.691406 C 8.085938 24.664062 8.046875 24.59375 8 24.621094 Z M 8 24.621094 " fill-opacity="1" fill-rule="nonzero"/><path fill="#9e4c1f" d="M 13.042969 34.359375 C 12.917969 34.109375 12.863281 33.835938 12.800781 33.566406 C 12.730469 33.277344 12.667969 32.984375 12.632812 32.6875 C 12.628906 32.636719 12.546875 32.636719 12.554688 32.6875 C 12.589844 32.992188 12.648438 33.289062 12.722656 33.589844 C 12.789062 33.863281 12.84375 34.144531 12.976562 34.402344 C 13 34.445312 13.070312 34.402344 13.042969 34.359375 Z M 13.042969 34.359375 " fill-opacity="1" fill-rule="nonzero"/><g clip-path="url(#b6828725b1)"><path fill="#edb171" d="M 59.667969 40.445312 C 57.550781 40.390625 55.558594 40.011719 53.5625 39.300781 C 52.511719 38.929688 51.503906 38.4375 50.414062 38.195312 C 49.332031 37.953125 48.214844 37.917969 47.109375 37.882812 C 44.773438 37.808594 42.4375 37.738281 40.101562 37.664062 C 39.007812 37.628906 37.902344 37.585938 36.8125 37.695312 C 35.789062 37.796875 34.824219 38.058594 33.886719 38.484375 C 32.214844 39.257812 30.507812 40.550781 28.5625 40.285156 C 26.628906 40.015625 25.144531 38.492188 23.355469 37.824219 C 22.351562 37.445312 21.285156 37.261719 20.222656 37.117188 C 19.097656 36.964844 17.96875 36.816406 16.835938 36.730469 C 15.6875 36.636719 14.523438 36.617188 13.378906 36.761719 C 12.269531 36.902344 11.195312 37.242188 10.082031 37.355469 C 9.164062 37.445312 8.277344 37.320312 7.425781 36.972656 C 6.660156 36.664062 5.957031 36.222656 5.269531 35.773438 C 3.972656 34.925781 1.21875 33.628906 0.832031 33.644531 C -2.328125 50.542969 7.535156 52.90625 10.050781 53.613281 C 12.878906 54.402344 15.816406 54.859375 18.726562 55.214844 C 24.765625 55.949219 30.886719 56.121094 36.964844 56.046875 C 56.039062 55.808594 59.890625 52.890625 59.667969 40.445312 Z M 59.667969 40.445312 " fill-opacity="1" fill-rule="nonzero"/></g><path fill="#bf7c34" d="M 32.996094 41.292969 C 32.050781 42.242188 30.652344 42.273438 29.394531 42.265625 C 29.339844 42.265625 29.339844 42.347656 29.394531 42.347656 C 30.675781 42.359375 32.09375 42.320312 33.054688 41.351562 C 33.089844 41.316406 33.035156 41.253906 32.996094 41.292969 Z M 32.996094 41.292969 " fill-opacity="1" fill-rule="nonzero"/><path fill="#bf7c34" d="M 32.542969 42.410156 C 32.066406 42.648438 31.5625 42.808594 31.035156 42.882812 C 30.984375 42.890625 31.003906 42.96875 31.054688 42.964844 C 31.59375 42.882812 32.101562 42.722656 32.589844 42.480469 C 32.632812 42.453125 32.59375 42.382812 32.542969 42.410156 Z M 32.542969 42.410156 " fill-opacity="1" fill-rule="nonzero"/><path fill="#bf7c34" d="M 49.496094 40.25 C 52.300781 40.160156 54.398438 42.390625 56.910156 43.253906 C 56.960938 43.269531 56.984375 43.191406 56.933594 43.175781 C 54.410156 42.308594 52.3125 40.082031 49.496094 40.167969 C 49.441406 40.167969 49.441406 40.25 49.496094 40.25 Z M 49.496094 40.25 " fill-opacity="1" fill-rule="nonzero"/><path fill="#bf7c34" d="M 53.3125 42.542969 C 54.21875 43.488281 55.210938 44.34375 56.277344 45.109375 C 56.324219 45.140625 56.363281 45.066406 56.320312 45.039062 C 55.261719 44.28125 54.273438 43.425781 53.367188 42.484375 C 53.332031 42.445312 53.273438 42.503906 53.3125 42.542969 Z M 53.3125 42.542969 " fill-opacity="1" fill-rule="nonzero"/><path fill="#bf7c34" d="M 25.382812 51.179688 C 26.066406 51.835938 26.867188 52.347656 27.753906 52.695312 C 27.804688 52.710938 27.824219 52.632812 27.777344 52.613281 C 26.90625 52.273438 26.117188 51.765625 25.441406 51.117188 C 25.40625 51.082031 25.34375 51.140625 25.382812 51.179688 Z M 25.382812 51.179688 " fill-opacity="1" fill-rule="nonzero"/><path fill="#bf7c34" d="M 32.292969 52.589844 C 32.96875 51.957031 33.675781 51.355469 34.414062 50.785156 C 34.453125 50.753906 34.414062 50.679688 34.371094 50.714844 C 33.628906 51.289062 32.914062 51.894531 32.234375 52.535156 C 32.199219 52.574219 32.257812 52.628906 32.292969 52.589844 Z M 32.292969 52.589844 " fill-opacity="1" fill-rule="nonzero"/><g clip-path="url(#79873ae18e)"><path fill="#ffffff" d="M 48.695312 47.5 C 48.757812 47.503906 48.820312 47.507812 48.882812 47.507812 C 52.144531 47.652344 55.421875 48.085938 58.550781 49.042969 C 58.570312 48.988281 58.59375 48.9375 58.613281 48.882812 C 56.113281 48.117188 53.515625 47.675781 50.90625 47.460938 C 50.164062 47.398438 49.429688 47.355469 48.691406 47.324219 C 48.640625 45.097656 48.523438 42.871094 48.347656 40.648438 C 48.273438 39.738281 48.191406 38.828125 48.097656 37.917969 C 48.039062 37.914062 47.976562 37.910156 47.917969 37.910156 C 48.234375 41.035156 48.433594 44.171875 48.507812 47.308594 C 45.035156 47.175781 41.554688 47.355469 38.09375 47.585938 C 37.179688 47.648438 36.269531 47.710938 35.355469 47.773438 C 35.347656 46.015625 35.289062 44.261719 35.160156 42.515625 C 35.050781 41.066406 34.867188 39.625 34.546875 38.207031 C 34.488281 38.230469 34.433594 38.25 34.378906 38.273438 C 34.988281 40.988281 35.09375 43.796875 35.152344 46.570312 C 35.160156 46.976562 35.164062 47.378906 35.171875 47.785156 C 31.671875 48.015625 28.167969 48.199219 24.660156 48.0625 C 22.757812 47.988281 20.863281 47.8125 19 47.492188 C 19.03125 45.054688 19.117188 42.621094 19.253906 40.1875 C 19.316406 39.128906 19.386719 38.070312 19.46875 37.011719 C 19.410156 37.007812 19.351562 36.996094 19.289062 36.988281 C 19.023438 40.476562 18.867188 43.96875 18.820312 47.460938 C 16.367188 47.03125 13.957031 46.355469 11.652344 45.355469 C 10.039062 44.652344 8.484375 43.835938 6.949219 42.984375 C 7.023438 41.523438 7.109375 40.066406 7.214844 38.609375 C 7.253906 38.050781 7.296875 37.492188 7.339844 36.9375 C 7.285156 36.910156 7.226562 36.886719 7.167969 36.859375 C 7.007812 38.867188 6.875 40.875 6.773438 42.882812 C 4.597656 41.675781 2.457031 40.410156 0.210938 39.339844 C 0.210938 39.40625 0.210938 39.472656 0.207031 39.542969 C 2.445312 40.621094 4.585938 41.878906 6.761719 43.085938 C 6.65625 45.207031 6.582031 47.328125 6.542969 49.457031 C 6.523438 50.394531 6.511719 51.328125 6.507812 52.265625 C 6.570312 52.296875 6.628906 52.328125 6.6875 52.363281 C 6.703125 49.300781 6.789062 46.238281 6.9375 43.183594 C 7.984375 43.761719 9.039062 44.324219 10.117188 44.84375 C 12.046875 45.777344 14.039062 46.542969 16.113281 47.074219 C 17.003906 47.304688 17.90625 47.492188 18.816406 47.652344 C 18.796875 49.132812 18.800781 50.621094 18.820312 52.105469 C 18.835938 53.144531 18.859375 54.1875 18.894531 55.230469 C 18.957031 55.234375 19.019531 55.246094 19.078125 55.25 C 18.996094 52.730469 18.96875 50.207031 18.996094 47.683594 C 20.175781 47.882812 21.363281 48.019531 22.558594 48.117188 C 26.753906 48.457031 30.972656 48.238281 35.171875 47.964844 C 35.191406 50.515625 35.125 53.070312 34.96875 55.617188 C 34.960938 55.765625 34.949219 55.910156 34.941406 56.058594 C 35 56.058594 35.058594 56.058594 35.121094 56.058594 C 35.214844 54.570312 35.28125 53.078125 35.316406 51.585938 C 35.347656 50.378906 35.363281 49.164062 35.359375 47.953125 C 35.566406 47.9375 35.777344 47.921875 35.980469 47.910156 C 40.152344 47.628906 44.332031 47.332031 48.515625 47.492188 C 48.542969 48.738281 48.550781 49.988281 48.539062 51.238281 C 48.527344 52.589844 48.492188 53.933594 48.433594 55.28125 C 48.496094 55.269531 48.554688 55.261719 48.617188 55.25 C 48.726562 52.667969 48.75 50.085938 48.695312 47.5 Z M 48.695312 47.5 " fill-opacity="1" fill-rule="nonzero"/></g><path fill="#bf7c34" d="M 10.40625 38.730469 C 8.519531 39.625 6.265625 39.617188 4.386719 38.710938 C 4.335938 38.691406 4.296875 38.761719 4.34375 38.78125 C 6.257812 39.699219 8.53125 39.710938 10.449219 38.800781 C 10.496094 38.777344 10.457031 38.710938 10.40625 38.730469 Z M 10.40625 38.730469 " fill-opacity="1" fill-rule="nonzero"/><path fill="#bf7c34" d="M 9.285156 40.066406 C 8.363281 40.429688 7.394531 40.652344 6.40625 40.71875 C 6.351562 40.722656 6.351562 40.804688 6.40625 40.800781 C 7.40625 40.734375 8.378906 40.515625 9.304688 40.144531 C 9.355469 40.125 9.335938 40.046875 9.285156 40.066406 Z M 9.285156 40.066406 " fill-opacity="1" fill-rule="nonzero"/><path fill="#bf7c34" d="M 23.542969 47.9375 C 24.242188 48.269531 24.96875 48.613281 25.5 49.199219 C 26 49.746094 26.300781 50.441406 26.777344 51.007812 C 27.65625 52.058594 28.890625 52.785156 30.230469 53.058594 C 30.28125 53.070312 30.304688 52.988281 30.253906 52.980469 C 28.828125 52.6875 27.527344 51.878906 26.652344 50.71875 C 26.222656 50.140625 25.921875 49.464844 25.390625 48.964844 C 24.871094 48.476562 24.222656 48.167969 23.585938 47.863281 C 23.535156 47.847656 23.496094 47.917969 23.542969 47.9375 Z M 23.542969 47.9375 " fill-opacity="1" fill-rule="nonzero"/><path fill="#bf7c34" d="M 34.59375 51.480469 C 35.230469 51.070312 35.992188 51.003906 36.730469 51.058594 C 36.785156 51.0625 36.785156 50.976562 36.730469 50.972656 C 35.972656 50.917969 35.199219 50.992188 34.550781 51.410156 C 34.503906 51.4375 34.546875 51.511719 34.59375 51.480469 Z M 34.59375 51.480469 " fill-opacity="1" fill-rule="nonzero"/><path fill="#bd632d" d="M 50.636719 37.476562 C 47.722656 37.214844 45.082031 35.878906 42.445312 34.71875 C 41.707031 34.394531 40.964844 34.085938 40.207031 33.808594 C 40.191406 33.800781 40.179688 33.804688 40.171875 33.8125 C 39.066406 34.34375 37.84375 34.539062 36.632812 34.671875 C 36.582031 34.679688 36.582031 34.757812 36.632812 34.75 C 37.851562 34.617188 39.085938 34.417969 40.203125 33.886719 C 42.929688 34.886719 45.476562 36.363281 48.289062 37.128906 C 49.058594 37.335938 49.84375 37.484375 50.636719 37.554688 C 50.6875 37.5625 50.6875 37.480469 50.636719 37.476562 Z M 50.636719 37.476562 " fill-opacity="1" fill-rule="nonzero"/><path fill="#bd632d" d="M 51.980469 33.691406 C 51.25 33.152344 50.402344 32.835938 49.53125 32.605469 C 48.582031 30.351562 47.988281 27.957031 47.773438 25.523438 C 47.769531 25.472656 47.6875 25.472656 47.691406 25.523438 C 47.90625 27.949219 48.496094 30.332031 49.4375 32.578125 C 49.191406 32.515625 48.941406 32.457031 48.695312 32.402344 C 47.351562 32.097656 46.011719 31.8125 44.671875 31.515625 C 43.902344 31.34375 43.128906 31.171875 42.359375 31.003906 C 42.308594 30.996094 42.285156 31.070312 42.335938 31.082031 C 43.675781 31.375 45.015625 31.671875 46.355469 31.96875 C 47.605469 32.246094 48.890625 32.460938 50.109375 32.855469 C 50.761719 33.066406 51.386719 33.355469 51.941406 33.761719 C 51.980469 33.792969 52.019531 33.722656 51.980469 33.691406 Z M 51.980469 33.691406 " fill-opacity="1" fill-rule="nonzero"/><path fill="#bd632d" d="M 39.472656 18.214844 C 39.148438 18.6875 38.6875 19.03125 38.1875 19.300781 C 37.925781 19.441406 37.652344 19.582031 37.367188 19.667969 C 37.015625 19.769531 36.664062 19.742188 36.332031 19.59375 C 35.230469 19.105469 34.699219 17.917969 34.390625 16.835938 C 34.1875 16.128906 34.027344 15.414062 33.871094 14.695312 C 33.863281 14.644531 33.78125 14.664062 33.796875 14.71875 C 33.949219 15.425781 34.109375 16.128906 34.308594 16.828125 C 34.484375 17.445312 34.707031 18.0625 35.070312 18.59375 C 35.390625 19.0625 35.824219 19.472656 36.351562 19.691406 C 36.613281 19.800781 36.871094 19.824219 37.121094 19.792969 C 37.167969 20.28125 37.234375 20.847656 37.054688 21.316406 C 37.035156 21.363281 37.117188 21.386719 37.132812 21.335938 C 37.316406 20.859375 37.246094 20.285156 37.199219 19.785156 C 37.199219 19.785156 37.199219 19.78125 37.199219 19.78125 C 37.492188 19.730469 37.777344 19.609375 38.0625 19.464844 C 38.636719 19.171875 39.179688 18.800781 39.546875 18.257812 C 39.570312 18.214844 39.5 18.175781 39.472656 18.214844 Z M 39.472656 18.214844 " fill-opacity="1" fill-rule="nonzero"/><path fill="#9e4c1f" d="M 18.261719 28.28125 C 18.285156 28.375 18.347656 28.425781 18.441406 28.449219 C 18.527344 28.476562 18.625 28.464844 18.710938 28.492188 C 18.796875 28.515625 18.855469 28.574219 18.933594 28.601562 C 18.957031 28.613281 18.984375 28.609375 19.011719 28.609375 C 19.125 28.609375 19.195312 28.609375 19.304688 28.652344 C 19.445312 28.703125 19.585938 28.730469 19.734375 28.667969 C 19.78125 28.652344 19.761719 28.570312 19.710938 28.59375 C 19.484375 28.6875 19.285156 28.527344 19.0625 28.519531 C 18.945312 28.515625 18.894531 28.460938 18.789062 28.425781 C 18.667969 28.390625 18.382812 28.417969 18.34375 28.261719 C 18.328125 28.207031 18.25 28.230469 18.261719 28.28125 Z M 18.261719 28.28125 " fill-opacity="1" fill-rule="nonzero"/><path fill="#9e4c1f" d="M 18.574219 28.761719 C 18.652344 28.902344 18.859375 28.929688 19.007812 28.917969 C 19.058594 28.910156 19.058594 28.832031 19.007812 28.839844 C 18.894531 28.847656 18.707031 28.835938 18.644531 28.722656 C 18.617188 28.679688 18.546875 28.71875 18.574219 28.761719 Z M 18.574219 28.761719 " fill-opacity="1" fill-rule="nonzero"/><path fill="#9e4c1f" d="M 19.625 17.367188 C 19.621094 17.148438 19.464844 17.050781 19.265625 17.148438 C 18.914062 17.3125 18.738281 17.753906 18.460938 18.007812 C 18.046875 18.402344 17.550781 18.453125 17.003906 18.480469 C 16.589844 18.5 16.171875 18.542969 15.828125 18.792969 C 15.785156 18.820312 15.828125 18.886719 15.867188 18.859375 C 16.484375 18.410156 17.277344 18.675781 17.957031 18.417969 C 18.21875 18.320312 18.4375 18.148438 18.625 17.949219 C 18.71875 17.84375 18.808594 17.738281 18.890625 17.625 C 18.953125 17.539062 19.015625 17.445312 19.089844 17.367188 C 19.132812 17.320312 19.535156 16.960938 19.542969 17.363281 C 19.550781 17.417969 19.628906 17.417969 19.625 17.367188 Z M 19.625 17.367188 " fill-opacity="1" fill-rule="nonzero"/><path fill="#d6743c" d="M 44.65625 30.128906 C 44.671875 30.230469 44.652344 30.324219 44.597656 30.40625 C 44.542969 30.488281 44.472656 30.535156 44.378906 30.550781 C 44.289062 30.5625 44.203125 30.535156 44.128906 30.472656 C 44.054688 30.410156 44.007812 30.328125 43.992188 30.222656 C 43.976562 30.121094 43.996094 30.027344 44.050781 29.945312 C 44.105469 29.863281 44.179688 29.816406 44.273438 29.804688 C 44.363281 29.789062 44.445312 29.816406 44.523438 29.878906 C 44.597656 29.941406 44.644531 30.027344 44.65625 30.128906 Z M 44.65625 30.128906 " fill-opacity="1" fill-rule="nonzero"/></svg>