<svg xmlns="http://www.w3.org/2000/svg" xmlns:xlink="http://www.w3.org/1999/xlink" width="80" zoomAndPan="magnify" viewBox="0 0 60 60" height="80" preserveAspectRatio="xMidYMid meet" version="1.0"><defs><clipPath id="8f15d93c94"><path d="M 0 2.816406 L 60 2.816406 L 60 59.816406 L 0 59.816406 Z M 0 2.816406 " clip-rule="nonzero"/></clipPath></defs><path fill="#e80000" d="M 39.589844 24.558594 C 39.589844 24.558594 39.585938 24.5625 39.582031 24.5625 C 38.074219 26.140625 26.011719 38.785156 24.503906 40.367188 C 24.480469 40.390625 24.472656 40.410156 24.421875 40.378906 C 24.371094 40.347656 24.386719 40.316406 24.398438 40.285156 C 24.8125 39.417969 28.117188 32.453125 28.527344 31.582031 C 28.871094 30.863281 28.5625 30 27.835938 29.660156 C 27.644531 29.570312 27.433594 29.523438 27.222656 29.523438 C 26.734375 29.523438 22.859375 29.523438 22.371094 29.523438 C 22.304688 29.523438 22.238281 29.488281 22.207031 29.429688 C 22.164062 29.375 22.160156 29.296875 22.191406 29.238281 C 22.777344 27.914062 27.449219 17.335938 28.03125 16.015625 C 28.0625 15.945312 28.132812 15.902344 28.210938 15.902344 C 28.832031 15.902344 33.78125 15.902344 34.398438 15.902344 C 34.464844 15.902344 34.527344 15.933594 34.566406 15.984375 C 34.601562 16.039062 34.609375 16.105469 34.582031 16.164062 C 34.378906 16.699219 32.78125 20.980469 32.578125 21.515625 C 32.421875 21.921875 32.460938 22.378906 32.6875 22.753906 C 32.914062 23.136719 33.300781 23.390625 33.738281 23.453125 C 34.3125 23.53125 38.910156 24.160156 39.484375 24.242188 C 39.554688 24.242188 39.613281 24.289062 39.632812 24.359375 C 39.664062 24.425781 39.644531 24.507812 39.589844 24.558594 Z M 39.589844 24.558594 " fill-opacity="1" fill-rule="nonzero"/><g clip-path="url(#8f15d93c94)"><path fill="#e80000" d="M 29.992188 8.597656 C 26.738281 4.976562 22.085938 2.910156 17.207031 2.914062 C 13.648438 2.890625 10.175781 4 7.292969 6.078125 C 6.933594 6.328125 6.585938 6.597656 6.253906 6.886719 C 6.234375 6.898438 6.074219 7.023438 6.054688 7.039062 C 5.84375 7.210938 5.644531 7.390625 5.453125 7.578125 C 5.167969 7.867188 4.863281 8.164062 4.59375 8.46875 C 3.59375 9.554688 2.730469 10.761719 2.027344 12.0625 C 1.972656 12.179688 1.917969 12.296875 1.859375 12.421875 C 1.714844 12.71875 1.566406 13.023438 1.441406 13.351562 C 1.246094 13.773438 1.078125 14.207031 0.945312 14.648438 C 0.730469 15.265625 0.566406 15.902344 0.449219 16.542969 C 0.3125 17.097656 0.222656 17.667969 0.191406 18.238281 C 0.121094 18.824219 0.0859375 19.410156 0.0898438 20 C 0.09375 20.957031 0.179688 21.910156 0.34375 22.851562 C 0.378906 23.117188 0.4375 23.382812 0.507812 23.644531 C 0.574219 24.011719 0.671875 24.363281 0.78125 24.753906 C 1.421875 26.882812 2.316406 28.925781 3.441406 30.84375 C 3.554688 31.019531 3.667969 31.203125 3.777344 31.386719 C 3.890625 31.5625 4.003906 31.75 4.113281 31.917969 C 4.359375 32.300781 4.601562 32.683594 4.863281 33.0625 C 4.863281 34.113281 4.863281 39.382812 4.863281 48.863281 C 4.296875 48.863281 3.984375 48.863281 3.921875 48.863281 C 2.878906 48.859375 2.03125 49.699219 2.027344 50.734375 C 2.023438 51.027344 2.089844 51.316406 2.21875 51.578125 C 2.238281 51.613281 2.257812 51.644531 2.285156 51.675781 C 2.816406 52.386719 7.070312 58.0625 7.605469 58.769531 C 7.925781 59.378906 8.5625 59.753906 9.25 59.75 C 9.25 59.75 9.257812 59.75 9.257812 59.75 C 9.953125 59.75 10.589844 59.363281 10.921875 58.753906 C 11.449219 58.042969 15.6875 52.382812 16.214844 51.675781 C 16.242188 51.644531 16.261719 51.613281 16.277344 51.578125 C 16.742188 50.644531 16.355469 49.519531 15.421875 49.058594 C 15.160156 48.929688 14.875 48.863281 14.585938 48.863281 C 14.519531 48.863281 14.199219 48.863281 13.625 48.863281 C 13.625 45.425781 13.625 43.515625 13.625 43.132812 C 13.84375 43.339844 14.054688 43.542969 14.273438 43.75 C 14.632812 44.113281 15.011719 44.460938 15.414062 44.785156 C 17.28125 46.488281 19.308594 48.183594 21.613281 49.980469 C 23.5 51.460938 25.417969 52.875 27.027344 53.964844 C 27.089844 54.011719 27.128906 54.035156 27.140625 54.042969 C 27.144531 54.046875 27.15625 54.054688 27.164062 54.058594 C 28.882812 55.183594 31.109375 55.183594 32.828125 54.058594 C 32.84375 54.054688 32.855469 54.042969 32.867188 54.035156 C 32.875 54.03125 32.933594 53.984375 32.941406 53.980469 C 37.191406 51.042969 41.242188 47.832031 45.074219 44.371094 C 45.347656 44.101562 45.628906 43.835938 45.914062 43.574219 C 46.351562 43.167969 46.792969 42.75 47.222656 42.320312 C 47.925781 41.621094 48.667969 40.882812 49.367188 40.15625 C 49.390625 40.128906 49.417969 40.105469 49.472656 40.042969 C 56.394531 32.71875 59.910156 25.972656 59.910156 20 C 59.898438 10.566406 52.226562 2.921875 42.757812 2.914062 C 37.882812 2.914062 33.242188 4.980469 29.992188 8.597656 Z M 25.414062 41.222656 C 25.167969 41.484375 24.828125 41.632812 24.46875 41.632812 C 24.203125 41.632812 23.945312 41.550781 23.726562 41.402344 C 23.179688 41.046875 22.984375 40.34375 23.269531 39.757812 C 23.683594 38.886719 26.988281 31.921875 27.402344 31.050781 C 27.429688 30.988281 27.425781 30.914062 27.386719 30.855469 C 27.351562 30.800781 27.289062 30.765625 27.222656 30.765625 C 26.734375 30.765625 22.859375 30.765625 22.371094 30.765625 C 21.574219 30.765625 20.925781 30.121094 20.925781 29.324219 C 20.925781 29.121094 20.96875 28.921875 21.050781 28.734375 C 21.636719 27.414062 26.308594 16.84375 26.890625 15.523438 C 27.117188 15 27.636719 14.660156 28.210938 14.660156 C 28.832031 14.660156 33.78125 14.660156 34.398438 14.660156 C 35.191406 14.65625 35.835938 15.292969 35.839844 16.082031 C 35.84375 16.257812 35.808594 16.4375 35.746094 16.605469 C 35.546875 17.140625 33.945312 21.414062 33.746094 21.949219 C 33.722656 22.007812 33.730469 22.070312 33.761719 22.125 C 33.796875 22.179688 33.851562 22.214844 33.914062 22.222656 C 34.488281 22.300781 39.074219 22.925781 39.644531 23.003906 C 40.433594 23.109375 40.984375 23.828125 40.878906 24.613281 C 40.839844 24.917969 40.699219 25.199219 40.488281 25.417969 C 40.488281 25.417969 26.921875 39.644531 25.414062 41.222656 Z M 25.414062 41.222656 " fill-opacity="1" fill-rule="nonzero"/></g></svg>