<svg xmlns="http://www.w3.org/2000/svg" xmlns:xlink="http://www.w3.org/1999/xlink" width="80" zoomAndPan="magnify" viewBox="0 0 60 60" height="80" preserveAspectRatio="xMidYMid meet" version="1.0"><defs><clipPath id="e5d349f7d6"><path d="M 10 53 L 26 53 L 26 59.25 L 10 59.25 Z M 10 53 " clip-rule="nonzero"/></clipPath><clipPath id="a9586ab698"><path d="M 34 53 L 50 53 L 50 59.25 L 34 59.25 Z M 34 53 " clip-rule="nonzero"/></clipPath></defs><path fill="#000000" d="M 23.390625 5.699219 C 23.390625 8.074219 21.464844 10.597656 19.089844 10.597656 C 16.714844 10.597656 14.792969 8.074219 14.792969 5.699219 C 14.792969 3.324219 16.714844 1.398438 19.089844 1.398438 C 21.464844 1.398438 23.390625 3.324219 23.390625 5.699219 Z M 23.390625 5.699219 " fill-opacity="1" fill-rule="nonzero"/><path fill="#6c9fc2" d="M 11.390625 14.371094 C 11.390625 12.289062 13.082031 10.597656 15.167969 10.597656 L 22.613281 10.597656 C 24.699219 10.597656 26.390625 12.289062 26.390625 14.371094 L 26.390625 21.394531 L 11.953125 21.394531 C 11.644531 21.394531 11.390625 21.144531 11.390625 20.835938 Z M 11.390625 14.371094 " fill-opacity="1" fill-rule="nonzero"/><path fill="#000000" d="M 14.691406 14.796875 C 15.078125 14.796875 15.390625 15.109375 15.390625 15.496094 L 15.390625 20.695312 C 15.390625 21.082031 15.078125 21.394531 14.691406 21.394531 C 14.304688 21.394531 13.992188 21.082031 13.992188 20.695312 L 13.992188 15.496094 C 13.992188 15.109375 14.304688 14.796875 14.691406 14.796875 Z M 22.691406 14.796875 C 23.074219 14.796875 23.390625 15.109375 23.390625 15.496094 L 23.390625 21.394531 C 23.390625 21.78125 23.074219 22.09375 22.691406 22.09375 C 22.304688 22.09375 21.992188 21.78125 21.992188 21.394531 L 21.992188 15.496094 C 21.992188 15.109375 22.304688 14.796875 22.691406 14.796875 Z M 22.691406 14.796875 " fill-opacity="1" fill-rule="evenodd"/><path fill="#000000" d="M 36.484375 5.699219 C 36.484375 8.074219 38.410156 10.597656 40.785156 10.597656 C 43.15625 10.597656 45.082031 8.074219 45.082031 5.699219 C 45.082031 3.324219 43.15625 1.398438 40.785156 1.398438 C 38.410156 1.398438 36.484375 3.324219 36.484375 5.699219 Z M 36.484375 5.699219 " fill-opacity="1" fill-rule="nonzero"/><path fill="#6c9fc2" d="M 48.480469 14.371094 C 48.480469 12.289062 46.792969 10.597656 44.707031 10.597656 L 37.261719 10.597656 C 35.175781 10.597656 33.484375 12.289062 33.484375 14.371094 L 33.484375 21.394531 L 47.921875 21.394531 C 48.230469 21.394531 48.480469 21.144531 48.480469 20.835938 Z M 48.480469 14.371094 " fill-opacity="1" fill-rule="nonzero"/><path fill="#000000" d="M 45.183594 14.796875 C 44.796875 14.796875 44.484375 15.109375 44.484375 15.496094 L 44.484375 20.695312 C 44.484375 21.082031 44.796875 21.394531 45.183594 21.394531 C 45.570312 21.394531 45.882812 21.082031 45.882812 20.695312 L 45.882812 15.496094 C 45.882812 15.109375 45.570312 14.796875 45.183594 14.796875 Z M 37.183594 14.796875 C 36.796875 14.796875 36.484375 15.109375 36.484375 15.496094 L 36.484375 21.394531 C 36.484375 21.78125 36.796875 22.09375 37.183594 22.09375 C 37.570312 22.09375 37.882812 21.78125 37.882812 21.394531 L 37.882812 15.496094 C 37.882812 15.109375 37.570312 14.796875 37.183594 14.796875 Z M 37.183594 14.796875 " fill-opacity="1" fill-rule="evenodd"/><path fill="#000000" d="M 34.75 4.601562 C 34.75 7.140625 32.691406 9.84375 30.152344 9.84375 C 27.609375 9.84375 25.550781 7.140625 25.550781 4.601562 C 25.550781 2.058594 27.609375 0 30.152344 0 C 32.691406 0 34.75 2.058594 34.75 4.601562 Z M 34.75 4.601562 " fill-opacity="1" fill-rule="nonzero"/><path fill="#6c9fc2" d="M 21.914062 13.617188 C 21.914062 11.53125 23.605469 9.84375 25.691406 9.84375 L 34.183594 9.84375 C 36.269531 9.84375 37.960938 11.53125 37.960938 13.617188 L 37.960938 21.394531 L 21.914062 21.394531 Z M 21.914062 13.617188 " fill-opacity="1" fill-rule="nonzero"/><path fill="#000000" d="M 25.445312 14.382812 C 25.832031 14.382812 26.144531 14.699219 26.144531 15.082031 L 26.144531 21.394531 C 26.144531 21.78125 25.832031 22.09375 25.445312 22.09375 C 25.058594 22.09375 24.746094 21.78125 24.746094 21.394531 L 24.746094 15.082031 C 24.746094 14.699219 25.058594 14.382812 25.445312 14.382812 Z M 34 14.382812 C 34.386719 14.382812 34.699219 14.699219 34.699219 15.082031 L 34.699219 21.394531 C 34.699219 21.78125 34.386719 22.09375 34 22.09375 C 33.617188 22.09375 33.300781 21.78125 33.300781 21.394531 L 33.300781 15.082031 C 33.300781 14.699219 33.617188 14.382812 34 14.382812 Z M 34 14.382812 " fill-opacity="1" fill-rule="evenodd"/><path fill="#6c9fc2" d="M 19.625 37.789062 C 24.410156 40.992188 21.132812 45.695312 23.355469 53.628906 L 12.421875 53.628906 C 12.421875 44.085938 7.347656 44.691406 6.140625 40.460938 L 0.398438 21.941406 C 0 20.664062 0.722656 19.304688 2.003906 18.917969 C 3.1875 18.5625 4.449219 19.15625 4.925781 20.296875 L 10.128906 32.746094 C 10.371094 32.4375 10.691406 32.175781 11.085938 32 C 12.039062 31.5625 13.164062 31.746094 13.929688 32.464844 L 19.488281 37.683594 C 19.53125 37.722656 19.578125 37.757812 19.625 37.789062 Z M 19.625 37.789062 " fill-opacity="1" fill-rule="nonzero"/><path fill="#6c9fc2" d="M 40.378906 37.789062 C 35.589844 40.992188 38.871094 45.695312 36.644531 53.628906 L 47.582031 53.628906 C 47.582031 44.085938 52.65625 44.691406 53.863281 40.460938 L 59.605469 21.941406 C 60.003906 20.664062 59.28125 19.304688 58 18.917969 C 56.816406 18.5625 55.554688 19.15625 55.078125 20.296875 L 49.875 32.746094 C 49.632812 32.4375 49.308594 32.175781 48.917969 32 C 47.960938 31.5625 46.839844 31.746094 46.074219 32.464844 L 40.511719 37.683594 C 40.472656 37.722656 40.425781 37.757812 40.378906 37.789062 Z M 40.378906 37.789062 " fill-opacity="1" fill-rule="nonzero"/><path fill="#000000" d="M 10.5625 32.199219 C 10.863281 32.4375 10.914062 32.875 10.675781 33.179688 C 10.128906 33.871094 10.113281 34.898438 10.746094 35.609375 L 15.722656 41.203125 C 15.980469 41.492188 15.953125 41.933594 15.667969 42.191406 C 15.378906 42.449219 14.9375 42.421875 14.679688 42.132812 L 9.703125 36.539062 C 8.59375 35.292969 8.636719 33.507812 9.578125 32.3125 C 9.816406 32.007812 10.257812 31.957031 10.5625 32.199219 Z M 10.5625 32.199219 " fill-opacity="1" fill-rule="evenodd"/><path fill="#000000" d="M 49.441406 32.199219 C 49.140625 32.4375 49.085938 32.875 49.328125 33.179688 C 49.875 33.871094 49.890625 34.898438 49.257812 35.609375 L 44.277344 41.203125 C 44.023438 41.492188 44.046875 41.933594 44.335938 42.191406 C 44.625 42.449219 45.066406 42.421875 45.324219 42.132812 L 50.300781 36.539062 C 51.410156 35.292969 51.367188 33.507812 50.425781 32.3125 C 50.183594 32.007812 49.746094 31.957031 49.441406 32.199219 Z M 49.441406 32.199219 " fill-opacity="1" fill-rule="evenodd"/><g clip-path="url(#e5d349f7d6)"><path fill="#000000" d="M 10.25 54.597656 C 10.25 54.0625 10.679688 53.628906 11.214844 53.628906 L 24.261719 53.628906 C 24.796875 53.628906 25.230469 54.0625 25.230469 54.597656 L 25.230469 58.582031 C 25.230469 59.117188 24.796875 59.550781 24.261719 59.550781 L 11.214844 59.550781 C 10.679688 59.550781 10.25 59.117188 10.25 58.582031 Z M 10.25 54.597656 " fill-opacity="1" fill-rule="nonzero"/></g><g clip-path="url(#a9586ab698)"><path fill="#000000" d="M 49.753906 54.597656 C 49.753906 54.0625 49.320312 53.628906 48.789062 53.628906 L 35.738281 53.628906 C 35.207031 53.628906 34.773438 54.0625 34.773438 54.597656 L 34.773438 58.582031 C 34.773438 59.117188 35.207031 59.550781 35.738281 59.550781 L 48.789062 59.550781 C 49.320312 59.550781 49.753906 59.117188 49.753906 58.582031 Z M 49.753906 54.597656 " fill-opacity="1" fill-rule="nonzero"/></g><path fill="#d90000" d="M 29.492188 36.929688 C 10.878906 27.191406 22.234375 12.007812 29.78125 20.554688 C 29.898438 20.6875 30.117188 20.6875 30.234375 20.554688 C 37.777344 12.007812 49.136719 27.191406 30.519531 36.929688 C 30.207031 37.09375 29.808594 37.09375 29.492188 36.929688 Z M 29.492188 36.929688 " fill-opacity="1" fill-rule="nonzero"/><path fill="#000000" d="M 31.3125 23.210938 L 28.5625 23.210938 C 28.253906 23.210938 28 23.460938 28 23.773438 L 28 25.402344 C 28 25.554688 27.875 25.683594 27.722656 25.683594 L 26.09375 25.683594 C 25.78125 25.683594 25.53125 25.933594 25.53125 26.242188 L 25.53125 28.992188 C 25.53125 29.300781 25.78125 29.550781 26.09375 29.550781 L 27.722656 29.550781 C 27.875 29.550781 28 29.675781 28 29.832031 L 28 31.460938 C 28 31.769531 28.253906 32.023438 28.5625 32.023438 L 31.3125 32.023438 C 31.621094 32.023438 31.871094 31.769531 31.871094 31.460938 L 31.871094 29.832031 C 31.871094 29.675781 31.996094 29.550781 32.152344 29.550781 L 33.78125 29.550781 C 34.089844 29.550781 34.339844 29.300781 34.339844 28.992188 L 34.339844 26.242188 C 34.339844 25.933594 34.089844 25.683594 33.78125 25.683594 L 32.152344 25.683594 C 31.996094 25.683594 31.871094 25.554688 31.871094 25.402344 L 31.871094 23.773438 C 31.871094 23.460938 31.621094 23.210938 31.3125 23.210938 Z M 31.3125 23.210938 " fill-opacity="1" fill-rule="nonzero"/></svg>